<?xml version="1.0" encoding="iso-8859-1"?>
<!-- Generator: Adobe Illustrator 18.0.0, SVG Export Plug-In . SVG Version: 6.00 Build 0)  -->
<!DOCTYPE svg PUBLIC "-//W3C//DTD SVG 1.1//EN" "http://www.w3.org/Graphics/SVG/1.1/DTD/svg11.dtd">
<svg version="1.1" id="Capa_1" xmlns="http://www.w3.org/2000/svg" xmlns:xlink="http://www.w3.org/1999/xlink" x="0px" y="0px"
	 viewBox="0 0 453.511 453.511" style="enable-background:new 0 0 453.511 453.511;" xml:space="preserve">
<g>
	<path d="M322.78,0H130.731c-19.834,0-35.97,16.136-35.97,35.969v385.51c0,4.142,3.357,7.5,7.5,7.5h15.216v17.031
		c0,4.142,3.357,7.5,7.5,7.5h38.564c4.143,0,7.5-3.358,7.5-7.5v-17.031h111.427v17.031c0,4.142,3.357,7.5,7.5,7.5h38.565
		c4.143,0,7.5-3.358,7.5-7.5v-17.031h15.215c4.143,0,7.5-3.358,7.5-7.5V35.969C358.749,16.136,342.613,0,322.78,0z M156.042,438.511
		h-23.564v-9.531h23.564V438.511z M321.034,438.511h-23.565v-9.531h23.565V438.511z M343.749,413.979H109.762V35.969
		c0-11.563,9.407-20.969,20.97-20.969H322.78c11.563,0,20.969,9.407,20.969,20.969V413.979z"/>
	<path d="M312.251,85.869H141.26c-4.143,0-7.5,3.358-7.5,7.5v44.998c0,4.142,3.357,7.5,7.5,7.5h170.991c4.143,0,7.5-3.358,7.5-7.5
		V93.369C319.751,89.227,316.394,85.869,312.251,85.869z M304.751,130.867H148.76v-29.998h155.991V130.867z"/>
	<path d="M226.756,197.503c-12.475,0-22.624,10.149-22.624,22.624s10.149,22.625,22.624,22.625s22.624-10.149,22.624-22.625
		S239.23,197.503,226.756,197.503z M226.756,227.752c-4.204,0-7.624-3.42-7.624-7.625s3.42-7.624,7.624-7.624
		s7.624,3.42,7.624,7.624S230.96,227.752,226.756,227.752z"/>
	<path d="M226.756,171.165c-26.998,0-48.963,21.964-48.963,48.962s21.965,48.963,48.963,48.963s48.963-21.965,48.963-48.963
		S253.754,171.165,226.756,171.165z M226.756,254.09c-18.728,0-33.963-15.236-33.963-33.963s15.235-33.962,33.963-33.962
		s33.963,15.235,33.963,33.962S245.483,254.09,226.756,254.09z"/>
	<path d="M173.291,301.888c0,4.142,3.357,7.5,7.5,7.5h70.401c4.143,0,7.5-3.358,7.5-7.5s-3.357-7.5-7.5-7.5h-70.401
		C176.648,294.388,173.291,297.746,173.291,301.888z"/>
	<path d="M271.249,294.534c-3.144,0.669-5.559,3.233-5.97,6.434c-0.399,3.109,1.28,6.209,4.07,7.614
		c6.031,3.038,12.792-3.167,10.353-9.418C278.395,295.813,274.781,293.842,271.249,294.534
		C270.778,294.634,272.219,294.344,271.249,294.534z"/>
	<path d="M272.72,349.668h-91.929c-4.143,0-7.5,3.358-7.5,7.5s3.357,7.5,7.5,7.5h91.929c4.143,0,7.5-3.358,7.5-7.5
		S276.862,349.668,272.72,349.668z"/>
	<path d="M272.72,322.028h-91.929c-4.143,0-7.5,3.358-7.5,7.5s3.357,7.5,7.5,7.5h91.929c4.143,0,7.5-3.358,7.5-7.5
		S276.862,322.028,272.72,322.028z"/>
</g>
<g>
</g>
<g>
</g>
<g>
</g>
<g>
</g>
<g>
</g>
<g>
</g>
<g>
</g>
<g>
</g>
<g>
</g>
<g>
</g>
<g>
</g>
<g>
</g>
<g>
</g>
<g>
</g>
<g>
</g>
</svg>
