<?xml version="1.0" encoding="iso-8859-1"?>
<!-- Generator: Adobe Illustrator 16.0.0, SVG Export Plug-In . SVG Version: 6.00 Build 0)  -->
<!DOCTYPE svg PUBLIC "-//W3C//DTD SVG 1.1//EN" "http://www.w3.org/Graphics/SVG/1.1/DTD/svg11.dtd">
<svg version="1.1" id="Capa_1" xmlns="http://www.w3.org/2000/svg" xmlns:xlink="http://www.w3.org/1999/xlink" x="0px" y="0px"
	 width="584.461px" height="584.46px" viewBox="0 0 584.461 584.46" style="enable-background:new 0 0 584.461 584.46;"
	 xml:space="preserve">
<g>
	<g>
		<path d="M207.021,286.228c20.184,0,36.601-16.42,36.601-36.604c0-20.184-16.42-36.604-36.601-36.604
			c-20.184,0-36.604,16.42-36.604,36.604C170.417,269.808,186.837,286.228,207.021,286.228z"/>
		<path d="M292.23,541.858c20.184,0,36.604-16.421,36.604-36.604s-16.42-36.604-36.604-36.604c-20.184,0-36.604,16.42-36.604,36.604
			S272.046,541.858,292.23,541.858z"/>
		<path d="M207.021,201.02c20.184,0,36.601-16.42,36.601-36.604c0-20.184-16.42-36.601-36.601-36.601
			c-20.184,0-36.604,16.42-36.604,36.601C170.417,184.6,186.837,201.02,207.021,201.02z"/>
		<path d="M207.021,371.437c20.184,0,36.601-16.42,36.601-36.604s-16.42-36.604-36.601-36.604
			c-20.184,0-36.604,16.421-36.604,36.604S186.837,371.437,207.021,371.437z"/>
		<path d="M207.021,456.649c20.184,0,36.601-16.42,36.601-36.601c0-20.184-16.42-36.604-36.601-36.604
			c-20.184,0-36.604,16.42-36.604,36.604C170.417,440.229,186.837,456.649,207.021,456.649z"/>
		<path d="M511.256,249.627c0,20.184,16.42,36.604,36.604,36.604s36.602-16.423,36.602-36.604s-16.42-36.604-36.605-36.604
			C527.672,213.024,511.256,229.444,511.256,249.627z"/>
		<path d="M292.23,456.649c20.184,0,36.604-16.42,36.604-36.601c0-20.184-16.42-36.604-36.604-36.604
			c-20.184,0-36.604,16.42-36.604,36.604C255.626,440.229,272.046,456.649,292.23,456.649z"/>
		<path d="M36.604,328.833c20.184,0,36.604-16.42,36.604-36.604c0-20.184-16.42-36.601-36.604-36.601
			C16.42,255.628,0,272.048,0,292.232C0,312.413,16.42,328.833,36.604,328.833z"/>
		<path d="M121.812,286.228c20.184,0,36.604-16.42,36.604-36.604c0-20.184-16.42-36.604-36.604-36.604s-36.601,16.42-36.601,36.604
			C85.212,269.808,101.629,286.228,121.812,286.228z"/>
		<path d="M121.812,371.437c20.184,0,36.604-16.42,36.604-36.604s-16.42-36.604-36.604-36.604s-36.601,16.421-36.601,36.604
			S101.629,371.437,121.812,371.437z"/>
		<path d="M462.648,286.228c20.184,0,36.604-16.42,36.604-36.604c0-20.184-16.42-36.604-36.604-36.604
			c-20.186,0-36.605,16.42-36.605,36.604C426.043,269.808,442.467,286.228,462.648,286.228z"/>
		<path d="M377.439,286.228c20.184,0,36.604-16.42,36.604-36.604c0-20.184-16.42-36.604-36.604-36.604s-36.602,16.42-36.602,36.604
			C340.838,269.808,357.258,286.228,377.439,286.228z"/>
		<path d="M499.252,334.836c0-20.184-16.42-36.604-36.604-36.604c-20.186,0-36.605,16.42-36.605,36.604s16.42,36.604,36.605,36.604
			C482.832,371.44,499.252,355.02,499.252,334.836z"/>
		<path d="M292.23,371.437c20.184,0,36.604-16.42,36.604-36.604s-16.42-36.604-36.604-36.604c-20.184,0-36.604,16.421-36.604,36.604
			S272.046,371.437,292.23,371.437z"/>
		<path d="M547.855,298.233c-20.184,0-36.604,16.42-36.604,36.604s16.42,36.604,36.604,36.604c20.186,0,36.605-16.42,36.605-36.604
			S568.041,298.233,547.855,298.233z"/>
		<path d="M292.23,286.228c20.184,0,36.604-16.42,36.604-36.604c0-20.184-16.42-36.601-36.604-36.601
			c-20.184,0-36.604,16.42-36.604,36.604S272.046,286.228,292.23,286.228z"/>
		<path d="M292.23,201.02c20.184,0,36.604-16.42,36.604-36.604c0-20.184-16.42-36.601-36.604-36.601
			c-20.184,0-36.604,16.42-36.604,36.601C255.626,184.6,272.046,201.02,292.23,201.02z"/>
		<path d="M292.23,115.811c20.184,0,36.604-16.42,36.604-36.604c0-20.184-16.42-36.604-36.604-36.604
			c-20.184,0-36.604,16.42-36.604,36.604C255.626,99.391,272.046,115.811,292.23,115.811z"/>
		<path d="M414.043,334.836c0-20.184-16.42-36.604-36.604-36.604s-36.602,16.42-36.602,36.604s16.42,36.604,36.602,36.604
			C397.623,371.437,414.043,355.02,414.043,334.836z"/>
	</g>
</g>
<g>
</g>
<g>
</g>
<g>
</g>
<g>
</g>
<g>
</g>
<g>
</g>
<g>
</g>
<g>
</g>
<g>
</g>
<g>
</g>
<g>
</g>
<g>
</g>
<g>
</g>
<g>
</g>
<g>
</g>
</svg>
