<svg width="160" height="160" viewBox="0 0 160 160" fill="none" xmlns="http://www.w3.org/2000/svg">
<path d="M80 6C74.5008 6 70 10.5008 70 16C70 21.4992 74.5008 26 80 26C85.4992 26 90 21.4992 90 16C90 10.5008 85.4992 6 80 6ZM80 10C83.3374 10 86 12.6626 86 16C86 19.3374 83.3374 22 80 22C76.6626 22 74 19.3374 74 16C74 12.6626 76.6626 10 80 10ZM80 30L78.3984 30.8047L78.082 32.5664L79.3047 33.875L80 34L81.6016 33.1953L81.918 31.4336L80.6953 30.125L80 30ZM24 36C18.5008 36 14 40.5008 14 46C14 51.4992 18.5008 56 24 56C29.4992 56 34 51.4992 34 46C34 40.5008 29.4992 36 24 36ZM136 36C130.501 36 126 40.5008 126 46C126 51.4992 130.501 56 136 56C141.499 56 146 51.4992 146 46C146 40.5008 141.499 36 136 36ZM80 38L78.3984 38.8047L78.082 40.5664L79.3047 41.875L80 42L81.6016 41.1953L81.918 39.4336L80.6953 38.125L80 38ZM24 40C27.3374 40 30 42.6626 30 46C30 49.3374 27.3374 52 24 52C20.6626 52 18 49.3374 18 46C18 42.6626 20.6626 40 24 40ZM136 40C139.337 40 142 42.6626 142 46C142 49.3374 139.337 52 136 52C132.663 52 130 49.3374 130 46C130 42.6626 132.663 40 136 40ZM80 46L78.3984 46.8047L78.082 48.5664L79.3047 49.875L80 50L81.6016 49.1953L81.918 47.4336L80.6953 46.125L80 46ZM120.73 53.6758L119.129 54.4766L118.812 56.2422L120.035 57.5508L120.73 57.6758L122.332 56.8711L122.648 55.1055L121.422 53.7969L120.73 53.6758ZM39.2695 53.8164L37.668 54.6172L37.3516 56.3828L38.5781 57.6914L39.2695 57.8164L40.8711 57.0117L41.1875 55.25L39.9648 53.9414L39.2695 53.8164ZM56 58C53.8139 58 52 59.8139 52 62V102C52 104.186 53.8139 106 56 106H104C106.186 106 108 104.186 108 102V62C108 59.8139 106.186 58 104 58H56ZM114 58L112.398 58.8047L112.082 60.5664L113.305 61.875L114 62L115.602 61.1953L115.918 59.4336L114.695 58.125L114 58ZM46 58.1406L44.3984 58.9453L44.082 60.707L45.3047 62.0195L46 62.1406L47.6016 61.3398L47.918 59.5742L46.6953 58.2656L46 58.1406ZM56 62H104V102H56V62ZM70 66C69.735 65.9963 69.4719 66.0452 69.2259 66.144C68.98 66.2429 68.7561 66.3896 68.5674 66.5757C68.3787 66.7618 68.2288 66.9835 68.1265 67.228C68.0242 67.4725 67.9715 67.735 67.9715 68C67.9715 68.265 68.0242 68.5275 68.1265 68.772C68.2288 69.0165 68.3787 69.2382 68.5674 69.4243C68.7561 69.6104 68.98 69.7571 69.2259 69.856C69.4719 69.9548 69.735 70.0037 70 70H90C90.265 70.0037 90.5282 69.9548 90.7741 69.856C91.02 69.7571 91.2439 69.6104 91.4326 69.4243C91.6213 69.2382 91.7712 69.0165 91.8735 68.772C91.9758 68.5275 92.0285 68.265 92.0285 68C92.0285 67.735 91.9758 67.4725 91.8735 67.228C91.7712 66.9835 91.6213 66.7618 91.4326 66.5757C91.2439 66.3896 91.02 66.2429 90.7741 66.144C90.5282 66.0452 90.265 65.9963 90 66H70ZM114 102L112.398 102.805L112.082 104.566L113.305 105.875L114 106L115.602 105.195L115.918 103.434L114.695 102.125L114 102ZM46 102.141L44.3984 102.945L44.082 104.707L45.3047 106.02L46 106.141L47.6016 105.34L47.918 103.574L46.6953 102.266L46 102.141ZM120.73 106.324L119.129 107.129L118.812 108.895L120.035 110.203L120.73 110.324L122.332 109.523L122.648 107.758L121.422 106.449L120.73 106.324ZM39.2695 106.469L37.668 107.27L37.3516 109.035L38.5781 110.344L39.2695 110.469L40.8711 109.664L41.1875 107.902L39.9648 106.594L39.2695 106.469ZM24 108C18.5008 108 14 112.501 14 118C14 123.499 18.5008 128 24 128C29.4992 128 34 123.499 34 118C34 112.501 29.4992 108 24 108ZM136 108C130.501 108 126 112.501 126 118C126 123.499 130.501 128 136 128C141.499 128 146 123.499 146 118C146 112.501 141.499 108 136 108ZM80 110L78.3984 110.805L78.082 112.566L79.3047 113.875L80 114L81.6016 113.195L81.918 111.434L80.6953 110.125L80 110ZM24 112C27.3374 112 30 114.663 30 118C30 121.337 27.3374 124 24 124C20.6626 124 18 121.337 18 118C18 114.663 20.6626 112 24 112ZM136 112C139.337 112 142 114.663 142 118C142 121.337 139.337 124 136 124C132.663 124 130 121.337 130 118C130 114.663 132.663 112 136 112ZM80 118L78.3984 118.805L78.082 120.566L79.3047 121.875L80 122L81.6016 121.195L81.918 119.434L80.6953 118.125L80 118ZM80 126L78.3984 126.805L78.082 128.566L79.3047 129.875L80 130L81.6016 129.195L81.918 127.434L80.6953 126.125L80 126ZM80 134C74.5008 134 70 138.501 70 144C70 149.499 74.5008 154 80 154C85.4992 154 90 149.499 90 144C90 138.501 85.4992 134 80 134ZM80 138C83.3374 138 86 140.663 86 144C86 147.337 83.3374 150 80 150C76.6626 150 74 147.337 74 144C74 140.663 76.6626 138 80 138Z" fill="#E8E2F3"/>
</svg>
