<?xml version="1.0" encoding="iso-8859-1"?>
<!-- Generator: Adobe Illustrator 19.0.0, SVG Export Plug-In . SVG Version: 6.00 Build 0)  -->
<svg version="1.1" id="Layer_1" xmlns="http://www.w3.org/2000/svg" xmlns:xlink="http://www.w3.org/1999/xlink" x="0px" y="0px"
	 viewBox="0 0 496 496" style="enable-background:new 0 0 496 496;" xml:space="preserve">
<g>
	<g>
		<g>
			<path d="M432,48V32h-96.728C310.752,11.392,279.928,0,248,0c-31.928,0-62.752,11.392-87.272,32H64v16H0v448h16V64h48v16h60.24
				C116.248,97.6,112,116.704,112,136c0,5.112,0.48,10.472,1.192,16H64v16H32v328h16V184h16v16h64.224
				c8.04,14.968,18.824,28.576,31.776,39.6v8.4h-16v16h16v16h-16v16h16v16h-16v16h16v32h32v136h16V360h80v136h16V360h32v-32h16v-16
				h-16v-16h16v-16h-16v-16h16v-16h-16v-8.4c12.952-11.024,23.736-24.632,31.776-39.6H432v-16h16v64h16v-80h-32v-16h-49.192
				c0.712-5.528,1.192-10.888,1.192-16c0-19.296-4.248-38.4-12.24-56H432V64h48v432h16V48H432z M336,48h16v16h-16V48z M144,48h16v16
				h-16V48z M80,64V48h48v16H80z M128,184H80v-16h48V184z M320,344H176v-16h144V344z M320,280h-16v16h16v16H176v-16h112v-16H176v-16
				h144V280z M352,184h-16v-16h16V184z M366.656,152H320v16h-48v16h48v16h29.44c-7.112,11.216-16.104,21.296-26.448,29.592L320,232
				v16h-64v-81.136c13.76-3.576,24-15.992,24-30.864c0-17.648-14.352-32-32-32s-32,14.352-32,32c0,14.872,10.232,27.288,24,30.864
				V248h-64v-16l-2.992-2.408c-10.344-8.304-19.336-18.384-26.448-29.592H176v-16h48v-16h-48v-16h-46.656
				c-0.8-5.592-1.344-10.96-1.344-16c0-19.456,4.888-38.704,14.048-56H176V64h48V48h-48v-7.768C196.76,24.584,221.968,16,248,16
				c26.024,0,51.24,8.584,72,24.232V48h-48v16h48v16h33.952C363.112,97.296,368,116.544,368,136
				C368,141.04,367.456,146.408,366.656,152z M248,152c-8.824,0-16-7.176-16-16c0-8.824,7.176-16,16-16c8.816,0,16,7.176,16,16
				C264,144.824,256.816,152,248,152z M144,184v-16h16v16H144z M416,168v16h-48v-16H416z M416,64h-48V48h48V64z"/>
			<rect x="448" y="264" width="16" height="232"/>
		</g>
	</g>
</g>
<g>
</g>
<g>
</g>
<g>
</g>
<g>
</g>
<g>
</g>
<g>
</g>
<g>
</g>
<g>
</g>
<g>
</g>
<g>
</g>
<g>
</g>
<g>
</g>
<g>
</g>
<g>
</g>
<g>
</g>
</svg>
