<svg xmlns="http://www.w3.org/2000/svg" xmlns:xlink="http://www.w3.org/1999/xlink" width="121" height="15" viewBox="0 0 121 15"><defs><path id="gnu2a" d="M220.55 31.23h4.99L229 38.5l-3.46 7.25h-4.99l3.46-7.25zM161.1 38.5l3.46 7.25h-4.99l-3.46-7.25 3.46-7.26h4.99zM172.87 46c-.88 0-1.7-.12-2.47-.35a7 7 0 0 1-4.8-4.66 8.1 8.1 0 0 1-.38-2.5c0-.9.12-1.72.37-2.5a7.06 7.06 0 0 1 4.8-4.64 8.67 8.67 0 0 1 4.46-.11 6.05 6.05 0 0 1 2.8 1.62 6.88 6.88 0 0 1 1.54 2.35l-3.63 1.77a3.1 3.1 0 0 0-1.52-1.82c-.36-.2-.75-.3-1.17-.3-.5 0-.97.1-1.38.29-.41.18-.77.44-1.07.77-.3.33-.53.72-.69 1.16a4.13 4.13 0 0 0 .7 4 3.14 3.14 0 0 0 2.44 1.05c.42 0 .81-.1 1.17-.3a3.07 3.07 0 0 0 1.52-1.8l3.63 1.73a8.07 8.07 0 0 1-1.53 2.33 6.24 6.24 0 0 1-2.8 1.66 7.6 7.6 0 0 1-1.99.25zm16.7-.26l-.5-1.7h-5l-.5 1.7h-4.78l5.13-14.5h5.3l5.13 14.5zm-3-10.2l-1.37 4.68h2.75zM200.5 46c-.98 0-1.87-.1-2.66-.29a8.01 8.01 0 0 1-3.8-2.02l2.19-3.26a6.5 6.5 0 0 0 2.72 1.62c.55.17 1.14.25 1.76.25.27 0 .52-.02.76-.07.23-.06.42-.14.56-.26a.57.57 0 0 0 .23-.45c0-.17-.12-.3-.34-.4-.21-.11-.5-.2-.88-.27-.36-.08-.78-.15-1.24-.23-.46-.09-.93-.2-1.42-.32-.5-.13-.97-.3-1.43-.53-.46-.22-.87-.5-1.24-.84a3.68 3.68 0 0 1-.88-1.28 4.74 4.74 0 0 1 1.12-5.15 5.26 5.26 0 0 1 1.81-1.08c.72-.26 1.56-.4 2.52-.4 1.14 0 2.2.16 3.2.5 1 .34 1.9.84 2.7 1.52l-2.25 3.1a6.59 6.59 0 0 0-2.72-1.27c-.47-.1-.93-.16-1.37-.16-.28 0-.5.03-.65.1a.63.63 0 0 0-.33.22c-.06.1-.09.21-.09.34 0 .16.12.3.34.4.21.11.5.2.87.29l1.24.26c.46.08.93.2 1.42.33.5.14.97.31 1.42.53.46.21.87.49 1.24.82.37.33.66.74.88 1.22.22.49.33 1.07.33 1.74a5 5 0 0 1-.72 2.73 4.55 4.55 0 0 1-2.07 1.71c-.9.4-1.96.6-3.22.6zm7.39-.26v-14.5h10.55v3.82h-6.34v1.44h6.2v3.83h-6.2v1.58h6.34v3.83z"/><path id="gnu2b" d="M124.41 45.74H120l-1.8-8.22-1.79 8.22h-4.42L108 31.24h4.71l1.8 8.87 2.1-8.88h3.17l2.1 8.88 1.78-8.88h4.74zm15.42 0h-10.56v-14.5h10.56v3.82h-6.34v1.44h6.19v3.83h-6.2v1.58h6.35zm10.61 0h-8.74v-14.5h8.45c.72 0 1.34.11 1.86.33.52.22.95.51 1.29.87a3.68 3.68 0 0 1 .98 2.5c0 .6-.1 1.13-.32 1.59a2.9 2.9 0 0 1-2.06 1.73c.5.08.96.29 1.36.6.4.33.7.74.94 1.25a4.33 4.33 0 0 1 .1 3.17 3.65 3.65 0 0 1-2.04 2.13c-.51.22-1.12.33-1.82.33zm-1.27-9.16a.8.8 0 0 0 .4-.1.81.81 0 0 0 .32-.3.88.88 0 0 0 .11-.47.79.79 0 0 0-.42-.72.87.87 0 0 0-.41-.1h-3.25v1.7zm.84 5.25a.88.88 0 0 0 .26-.66.97.97 0 0 0-.11-.47.87.87 0 0 0-.34-.34 1.06 1.06 0 0 0-.53-.12h-3.37v1.85h3.37a1 1 0 0 0 .72-.26z"/></defs><g><g transform="translate(-108 -31)"><use fill="#fff" xlink:href="#gnu2a"/></g><g transform="translate(-108 -31)"><use fill="#00b29c" xlink:href="#gnu2b"/></g></g></svg>