<?xml version="1.0" encoding="UTF-8" standalone="no"?>
<svg
   enable-background="new 0 0 512 512"
   version="1.1"
   viewBox="0 0 341.89999 224.3"
   xml:space="preserve"
   id="svg17"
   sodipodi:docname="suppliers.svg"
   width="341.89999"
   height="224.3"
   inkscape:version="1.2 (dc2aeda, 2022-05-15)"
   xmlns:inkscape="http://www.inkscape.org/namespaces/inkscape"
   xmlns:sodipodi="http://sodipodi.sourceforge.net/DTD/sodipodi-0.dtd"
   xmlns="http://www.w3.org/2000/svg"
   xmlns:svg="http://www.w3.org/2000/svg"><defs
     id="defs21" /><sodipodi:namedview
     id="namedview19"
     pagecolor="#ffffff"
     bordercolor="#666666"
     borderopacity="1.0"
     inkscape:showpageshadow="2"
     inkscape:pageopacity="0.0"
     inkscape:pagecheckerboard="0"
     inkscape:deskcolor="#d1d1d1"
     showgrid="false"
     inkscape:zoom="0.4609375"
     inkscape:cx="172.47458"
     inkscape:cy="95.457627"
     inkscape:window-width="1309"
     inkscape:window-height="456"
     inkscape:window-x="0"
     inkscape:window-y="25"
     inkscape:window-maximized="0"
     inkscape:current-layer="svg17" /><g
     id="Layer_1"
     transform="translate(-85,-143.8)" /><g
     id="Layer_2"
     transform="translate(-85,-143.8)"><g
       id="g14"><path
         d="m 399.6,221.9 c -1.4,-2 -3.7,-3.2 -6.1,-3.2 H 339.3 V 195 c 0,-4.1 -3.4,-7.5 -7.5,-7.5 H 193.6 c -5.2,-24.9 -27.3,-43.7 -53.7,-43.7 -30.3,0 -54.9,24.6 -54.9,54.9 0,27.4 20.2,50.2 46.5,54.2 v 80.6 c 0,4.1 3.4,7.5 7.5,7.5 h 25.1 c 4.1,15.6 18.2,27.1 35,27.1 16.8,0 31,-11.5 35,-27.1 h 96.7 c 4.1,15.6 18.2,27.1 35,27.1 16.8,0 31,-11.5 35,-27.1 h 18.6 c 4.1,0 7.5,-3.4 7.5,-7.5 v -70.7 c 0,-1.6 -0.5,-3.1 -1.4,-4.3 z m 12.4,43.4 v 1.2 h -40.8 v -32.8 h 18.4 z M 100,198.7 c 0,-22 17.9,-39.9 39.9,-39.9 22,0 39.9,17.9 39.9,39.9 0,22 -17.9,39.9 -39.9,39.9 -22,0 -39.9,-17.9 -39.9,-39.9 z m 46.6,54.5 c 25.9,-3.2 46.2,-24.4 48,-50.6 h 129.7 v 123.6 h -89.4 c -2.8,-17.2 -17.8,-30.3 -35.7,-30.3 -17.9,0 -32.9,13.1 -35.7,30.3 h -16.9 z m 52.6,99.9 c -11.7,0 -21.2,-9.5 -21.2,-21.2 0,-11.7 9.5,-21.2 21.2,-21.2 11.7,0 21.2,9.5 21.2,21.2 0,11.7 -9.6,21.2 -21.2,21.2 z m 166.7,0 c -11.7,0 -21.2,-9.5 -21.2,-21.2 0,-11.7 9.5,-21.2 21.2,-21.2 11.7,0 21.2,9.5 21.2,21.2 0,11.7 -9.5,21.2 -21.2,21.2 z m 35.7,-27 c -2.8,-17.2 -17.8,-30.3 -35.7,-30.3 -10.5,0 -20,4.5 -26.6,11.7 v -73.7 h 16.9 V 274 c 0,4.1 3.4,7.5 7.5,7.5 H 412 V 326 h -10.4 z"
         id="path10" /><path
         d="m 147.4,215.9 v -9.7 h 9.7 c 4.1,0 7.5,-3.4 7.5,-7.5 0,-4.1 -3.4,-7.5 -7.5,-7.5 h -9.7 v -9.7 c 0,-4.1 -3.4,-7.5 -7.5,-7.5 -4.1,0 -7.5,3.4 -7.5,7.5 v 9.7 h -9.7 c -4.1,0 -7.5,3.4 -7.5,7.5 0,4.1 3.4,7.5 7.5,7.5 h 9.7 v 9.7 c 0,4.1 3.4,7.5 7.5,7.5 4.1,0 7.5,-3.3 7.5,-7.5 z"
         id="path12" /></g></g></svg>
