<?xml version="1.0" standalone="no"?>
<!DOCTYPE svg PUBLIC "-//W3C//DTD SVG 20010904//EN"
 "http://www.w3.org/TR/2001/REC-SVG-20010904/DTD/svg10.dtd">
<svg version="1.0" xmlns="http://www.w3.org/2000/svg"
 width="512.000000pt" height="512.000000pt" viewBox="0 0 512.000000 512.000000"
 preserveAspectRatio="xMidYMid meet">

<g transform="translate(0.000000,512.000000) scale(0.100000,-0.100000)"
fill="#238350" stroke="none">
<path d="M1570 4504 c-707 -134 -1288 -243 -1292 -244 -5 0 -8 -765 -8 -1699
l0 -1700 53 -10 c28 -6 603 -114 1277 -241 674 -127 1237 -233 1253 -236 l27
-6 0 221 0 221 913 0 913 0 51 25 c32 16 61 41 79 67 l29 41 3 1591 c1 875 0
1605 -3 1622 -7 42 -70 113 -119 135 -39 18 -89 19 -953 19 l-913 0 0 220 c0
170 -3 220 -12 219 -7 0 -591 -111 -1298 -245z m3125 -1944 l0 -1575 -907 -3
-908 -2 0 145 0 145 315 0 315 0 0 195 0 195 -315 0 -315 0 0 75 0 75 315 0
315 0 0 195 0 195 -315 0 -315 0 0 75 0 75 315 0 315 0 0 200 0 200 -315 0
-315 0 0 80 0 80 315 0 315 0 0 195 0 195 -315 0 -315 0 0 80 0 80 315 0 315
0 0 195 0 195 -315 0 -315 0 0 145 0 145 908 -2 907 -3 0 -1575z m-2664 738
c-120 -223 -364 -694 -364 -703 1 -5 93 -183 206 -395 113 -212 204 -386 202
-388 -1 -1 -84 3 -183 9 l-180 13 -116 260 c-63 144 -119 277 -124 296 l-9 35
-7 -35 c-6 -28 -219 -506 -231 -519 -4 -4 -307 18 -312 22 -1 2 80 159 182
350 l186 346 -170 348 c-164 336 -169 348 -146 354 12 4 85 10 162 14 l139 7
93 -228 c52 -126 99 -249 106 -274 l12 -45 16 57 c10 31 65 163 124 291 l106
235 141 9 c77 6 156 11 174 11 l33 2 -40 -72z"/>
<path d="M3680 3655 l0 -195 360 0 360 0 0 195 0 195 -360 0 -360 0 0 -195z"/>
<path d="M3680 3105 l0 -195 360 0 360 0 0 195 0 195 -360 0 -360 0 0 -195z"/>
<path d="M3680 2550 l0 -200 360 0 360 0 0 200 0 200 -360 0 -360 0 0 -200z"/>
<path d="M3680 2005 l0 -195 360 0 360 0 0 195 0 195 -360 0 -360 0 0 -195z"/>
<path d="M3680 1465 l0 -195 360 0 360 0 0 195 0 195 -360 0 -360 0 0 -195z"/>
</g>
</svg>
