<svg width="884" height="180" viewBox="0 0 884 180" fill="none" xmlns="http://www.w3.org/2000/svg">
<path d="M0 133.372C4.8 130.572 9.1 127.972 13.4 125.472C21.4 120.772 29.3 116.072 37.3 111.472C39.1 110.472 39 109.972 37.3 108.972C26.9 102.872 16.5 96.6721 6 90.6721C3.6 89.2721 2.5 87.7721 2.6 84.8721C2.8 72.2721 2.7 59.6721 2.6 47.1721C2.6 45.1721 3.3 44.1721 4.9 43.2721C27.4 30.0721 49.7 16.8721 72.1 3.67212C73 3.17212 74.1 2.77213 74.9 2.07212C78.3 -1.02787 81.3 -0.227875 85 2.07212C103.9 13.3721 123 24.2721 142 35.3721C147.3 38.4721 152.6 41.5721 157.9 44.7721C159.9 45.9721 159.9 46.1721 157.8 47.4721C147.8 53.3721 137.8 59.1721 127.9 65.0721C125.3 66.5721 125.3 66.7721 128 68.2721C136.8 73.3721 145.5 78.5721 154.3 83.5721C156.4 84.7721 157.4 86.1721 157.4 88.8721C157.2 103.472 157.3 118.072 157.3 132.572C157.3 134.272 156.9 135.272 155.3 136.172C134.2 148.472 113.1 160.872 92 173.272C88.7 175.172 85.4 177.072 82.1 179.172C80.7 180.072 79.5 180.172 78 179.272C57.4 167.072 36.7 154.972 16 142.772C10.8 139.772 5.7 136.672 0 133.372ZM82.8 171.872C84.1 171.172 84.9 170.872 85.7 170.372C92.5 166.372 99.4 162.472 106.2 158.472C119.6 150.672 132.9 142.772 146.3 134.972C148.9 133.472 148.9 133.472 146.4 131.972C136.4 126.072 126.4 120.272 116.5 114.372C115.3 113.672 114.4 113.872 113.3 114.572C103.7 120.172 94.2 125.772 84.6 131.272C83.4 131.972 82.9 132.772 82.9 134.272C83 139.372 82.9 144.472 82.9 149.472C82.8 156.772 82.8 164.072 82.8 171.872ZM76.8 171.872C77 171.072 77.1 170.772 77.1 170.472C77.1 158.272 77.1 145.972 77.1 133.772C77.1 132.572 76.5 131.972 75.6 131.472C65.9 125.772 56.2 120.172 46.5 114.372C45.4 113.772 44.6 113.772 43.5 114.372C33.5 120.272 23.4 126.172 13.3 132.072C11.3 133.172 11.6 133.772 13.4 134.772C28.2 143.372 43 152.072 57.8 160.772C64.1 164.372 70.3 168.072 76.8 171.872ZM147.9 45.9721C145.4 43.7721 142.6 42.2721 139.9 40.7721C121.7 30.0721 103.4 19.4721 85.2 8.77212C83.5 7.77212 82.8 7.67212 82.9 9.97212C83 19.8721 83 29.7721 82.9 39.6721C82.9 41.0721 83.2 41.9721 84.5 42.6721C95.6 49.0721 106.6 55.5721 117.7 62.0721C118.9 62.7721 120 63.0721 121.4 62.1721C128.4 57.9721 135.5 53.9721 142.5 49.7721C144.2 48.7721 146.4 47.9721 147.9 45.9721ZM77.1 24.9721C77.1 20.5721 77.1 16.1721 77.1 11.7721C77.1 10.5721 77.7 8.87212 76.7 8.27212C75.7 7.67212 74.5 8.97213 73.4 9.67212C53.5 21.2721 33.7 32.9721 13.8 44.6721C11.4 46.0721 11.4 46.1721 13.7 47.5721C21.9 52.3721 30.1 57.1721 38.2 62.0721C39.9 63.0721 41.2 62.8721 42.7 61.9721C53.5 55.5721 64.3 49.1721 75.2 42.8721C76.5 42.0721 77.1 41.2721 77.1 39.6721C77.1 34.7721 77.1 29.8721 77.1 24.9721ZM79.9 46.8721C79.3 47.1721 78.7 47.3721 78.3 47.6721C68.3 53.4721 58.4 59.2721 48.6 65.0721C46.3 66.3721 46.3 66.6721 48.5 67.9721C58.5 73.8721 68.4 79.6721 78.4 85.5721C79.6 86.2721 80.5 86.1721 81.6 85.5721C91.6 79.6721 101.7 73.7721 111.8 67.9721C113.6 66.8721 113.6 66.2721 111.7 65.1721C101.8 59.4721 92 53.6721 82.2 47.8721C81.4 47.4721 80.6 47.1721 79.9 46.8721ZM147.9 87.2721C147.7 86.9721 147.6 86.8721 147.6 86.7721C138.9 80.5721 129.4 75.8721 120.3 70.3721C119.5 69.8721 118.9 70.2721 118.3 70.6721C108.1 76.6721 97.9 82.5721 87.7 88.5721C86.1 89.4721 86.1 90.1721 87.7 91.0721C94.6 95.0721 101.7 98.7721 108.3 103.272C112.9 106.372 116.5 106.672 121.3 103.372C129.8 97.4721 139.3 93.0721 147.9 87.2721ZM11.6 86.8721C12.1 87.3721 12.4 87.6721 12.7 87.8721C23 93.9721 33.3 99.9721 43.6 106.072C44.7 106.772 45.6 106.472 46.6 105.872C54.8 101.072 63.1 96.1721 71.3 91.3721C74 89.7721 74 89.5721 71.2 87.9721C61.4 82.1721 51.5 76.4721 41.8 70.6721C40.6 69.9721 39.8 70.1721 38.7 70.7721C32.6 74.4721 26.4 77.9721 20.2 81.6721C17.4 83.3721 14.6 85.0721 11.6 86.8721ZM109.1 110.372C108.2 109.772 107.8 109.372 107.3 109.072C99.6 104.472 91.7 100.172 84.1 95.3721C81.1 93.4721 78.9 93.4721 75.9 95.3721C68.5 100.072 60.7 104.372 53.1 108.872C50.9 110.172 51 110.372 53.1 111.672C59.5 115.472 66 119.272 72.4 123.072C74.8 124.472 77.2 126.772 79.8 126.972C82.5 127.272 84.9 124.472 87.4 123.072C94.5 118.972 101.6 114.772 109.1 110.372ZM120.8 110.372C130.8 116.272 140.4 121.872 150 127.472C152.2 128.772 151.7 126.972 151.7 125.972C151.7 115.372 151.7 104.872 151.7 94.2721C151.7 92.1721 151 92.2721 149.6 93.1721C144.6 96.1721 139.5 98.9721 134.5 101.972C130.1 104.672 125.4 107.072 120.8 110.372ZM8.4 66.2721C8.4 70.6721 8.4 75.0721 8.4 79.4721C8.4 81.0721 8.7 81.9721 10.5 80.8721C18 76.4721 25.5 71.9721 33 67.5721C34.3 66.7721 34.4 66.2721 33 65.3721C25.4 61.0721 17.8 56.5721 10.2 52.0721C8.8 51.2721 8.3 51.3721 8.3 53.0721C8.4 57.4721 8.4 61.8721 8.4 66.2721Z" fill="#FF440A"/>
<path d="M225.9 45.072C232.8 45.072 238.7 45.872 244.2 48.472C252.5 52.372 256.7 59.072 257.9 67.972C258.7 73.872 258.6 73.872 252.8 73.872C250.2 73.872 247.6 73.772 245.1 73.872C243.8 73.872 243.5 73.472 243.3 72.172C242.5 62.772 237.3 57.772 227.8 57.372C223.1 57.172 218.4 57.472 214.6 60.672C208.5 65.672 209.3 74.172 216.2 77.972C221.5 80.972 227.5 81.872 233.3 83.372C237.8 84.572 242.3 85.772 246.6 87.672C254.9 91.372 260.2 97.372 260.8 106.772C261.5 117.172 258 125.572 248.8 131.172C239.9 136.572 230.1 136.972 220.1 135.672C213.3 134.772 207.2 132.372 202.3 127.472C196.7 121.972 194.6 114.972 194.3 107.372C194.3 106.072 194.6 105.472 196.1 105.472C199.9 105.572 203.8 105.572 207.6 105.472C209.1 105.472 209.4 106.072 209.5 107.372C209.9 117.972 216.4 123.772 227.1 123.972C231.4 124.072 235.6 123.772 239.4 121.672C243.7 119.272 245.6 115.572 245.6 110.772C245.6 106.072 243.4 102.972 239.2 100.972C233.3 98.272 226.9 97.372 220.8 95.472C215.6 93.872 210.4 92.472 205.7 89.672C198.1 85.072 195.3 78.072 195.5 69.572C195.9 56.072 205.4 48.472 217.5 45.872C220.6 45.272 223.6 45.172 225.9 45.072Z" fill="#425563"/>
<path d="M678.7 124.272C676.7 126.172 675.7 127.772 674.2 128.972C663.2 137.872 645.8 134.372 639.1 121.272C632.5 108.472 632.6 95.2722 639.3 82.4722C646.4 68.9722 665.3 66.8722 674.3 75.2722C675.9 76.7722 677.1 78.5722 678.7 80.3722C679.4 78.1722 679.1 76.1722 679 74.1722C679 72.4722 679.5 72.0722 681.2 72.0722C684.3 72.1722 687.4 72.1722 690.4 72.0722C691.7 72.0722 692.3 72.3722 692.3 73.8722C692.2 94.0722 692.5 114.372 692 134.572C691.6 147.972 682.5 156.672 669.2 157.872C662.2 158.572 655.4 158.172 648.9 155.372C642.4 152.572 638.5 147.572 637.4 140.472C637.1 138.872 637.5 138.172 639.3 138.272C642.7 138.372 646.1 138.372 649.5 138.272C650.7 138.272 651.3 138.672 651.5 139.872C652.6 144.672 656.1 146.772 660.7 147.372C672.7 148.772 678.4 143.772 678.6 131.672C678.7 129.372 678.7 127.172 678.7 124.272ZM649.2 101.972C649.3 103.772 649.4 105.672 649.7 107.472C650 109.072 650.5 110.672 651 112.272C652.9 117.972 657.7 121.772 663.3 122.072C669.2 122.372 674.4 119.372 676.9 113.772C680.4 105.772 680.4 97.7722 676.6 89.8722C674.2 84.7722 669.8 82.0722 664.2 82.0722C658.6 81.9722 654.5 84.7722 652 89.6722C650 93.4722 649.2 97.5722 649.2 101.972Z" fill="#425563"/>
<path d="M327.8 103.272C327.6 110.872 326.2 118.172 321.7 124.572C315.4 133.372 306.4 136.472 296.1 136.272C290 136.172 284.1 134.872 278.9 131.172C272.7 126.872 269.1 120.872 267.4 113.672C265.5 105.272 265.6 96.8722 268.6 88.8722C272.6 78.0722 280.7 72.0722 292 70.4722C298.7 69.5722 305.3 70.1722 311.5 73.2722C321.1 77.9722 325.6 86.1722 327.3 96.3722C327.6 98.5722 328 100.972 327.8 103.272ZM313 102.872C313.1 98.9722 312.4 94.7722 310.7 90.7722C308.4 85.5722 304.7 81.9722 298.8 81.3722C292.3 80.6722 287.3 83.1722 284.3 88.8722C279.6 97.8722 279.7 107.172 283.7 116.372C286.2 122.272 291.1 125.372 297.6 125.072C304.3 124.772 308.6 121.072 311.1 114.872C312.5 111.172 313.1 107.172 313 102.872Z" fill="#425563"/>
<path d="M540.2 105.972C533.3 105.972 526.4 105.972 519.5 105.972C518.4 105.972 517.1 105.772 517.3 107.472C518.1 114.472 519.7 120.972 526.8 124.472C532.9 127.372 544.5 126.172 547.4 117.172C547.8 115.972 548.4 115.472 549.7 115.472C553.3 115.572 556.9 115.572 560.4 115.472C562.2 115.372 562.3 116.072 561.8 117.472C559.6 124.572 555.1 129.772 548.6 132.972C540.1 136.972 531.2 137.372 522.4 134.372C514.8 131.872 509.6 126.572 506.5 119.172C502.6 109.772 502.1 100.072 505.1 90.372C508.5 79.572 515.8 72.572 527.1 70.672C538.7 68.772 549.1 71.272 556.4 81.172C561.5 88.072 563 96.172 562.9 104.572C562.9 106.272 561.8 105.872 560.9 105.872C554.1 105.972 547.1 105.972 540.2 105.972ZM533.1 96.872C537.8 96.872 542.4 96.772 547.1 96.872C548.5 96.872 549.1 96.472 548.8 94.972C547.8 89.672 545.8 85.072 540.8 82.372C530.8 76.872 518.2 84.072 517.6 95.472C517.5 96.972 518.4 96.872 519.3 96.872C523.9 96.872 528.5 96.872 533.1 96.872Z" fill="#425563"/>
<path d="M830.3 105.972C823.5 105.972 816.6 106.072 809.8 105.972C807.8 105.972 807.4 106.472 807.6 108.372C808.2 113.572 809.4 118.372 813.3 122.072C820.1 128.672 835 126.672 837.6 116.872C837.9 115.672 838.6 115.572 839.6 115.572C843.3 115.572 846.9 115.672 850.6 115.572C852.3 115.572 852.3 116.172 851.9 117.572C849.3 126.472 843.2 131.972 834.6 134.772C827.6 137.072 820.3 137.072 813.2 134.872C804.7 132.072 798.9 126.272 796 117.772C792 105.972 792.1 94.3722 798.5 83.3722C802.9 75.9722 809.7 71.8722 818.2 70.6722C825.5 69.5722 832.5 70.4722 838.9 74.2722C846.7 78.8722 850.4 86.1722 852.2 94.7722C852.8 97.8722 853 101.072 853.2 104.172C853.3 105.772 852.6 106.172 851.2 106.072C844.3 105.872 837.3 105.972 830.3 105.972ZM823.4 96.8722C827.9 96.8722 832.4 96.7722 836.9 96.8722C838.9 96.9722 839.2 96.2722 839 94.3722C837.6 84.3722 829.1 78.4722 819.3 81.0722C812.5 82.8722 809.6 88.0722 808.2 94.4722C807.8 96.2722 808 96.8722 810 96.7722C814.4 96.7722 818.9 96.8722 823.4 96.8722Z" fill="#425563"/>
<path d="M377.3 126.472C374.3 129.672 371.6 132.272 368 133.872C360.5 137.172 348.1 136.572 341.8 129.472C337.3 124.372 335.8 118.272 335.7 111.672C335.6 99.272 335.7 86.872 335.6 74.472C335.6 72.572 336.1 71.772 338.1 71.972C341.2 72.172 344.3 72.172 347.3 71.972C349.2 71.872 349.7 72.572 349.7 74.372C349.6 85.272 349.7 96.172 349.7 107.072C349.7 109.372 349.8 111.772 350.2 114.072C351 118.472 352.8 122.272 357.4 123.672C362.3 125.172 367 124.772 371 121.272C374.6 118.272 376.2 114.072 376.3 109.572C376.5 97.972 376.5 86.372 376.4 74.872C376.4 72.672 376.9 71.772 379.3 71.972C382.4 72.172 385.6 72.072 388.8 71.972C390.2 71.972 390.7 72.372 390.7 73.872C390.7 93.472 390.7 113.072 390.7 132.572C390.7 133.972 390.3 134.472 388.8 134.372C385.6 134.272 382.3 134.272 379.1 134.372C377.8 134.372 377.3 133.972 377.4 132.672C377.4 130.872 377.3 128.972 377.3 126.472Z" fill="#425563"/>
<path d="M743.9 80.172C746.8 76.572 749.6 74.072 753.2 72.472C765.1 67.272 784.3 70.772 785.3 91.672C786 105.272 785.4 118.972 785.5 132.672C785.5 134.072 784.9 134.372 783.7 134.272C780.4 134.172 777 134.172 773.7 134.272C771.8 134.372 771.5 133.672 771.5 131.972C771.6 120.772 771.5 109.672 771.5 98.472C771.5 96.672 771.4 94.772 771.2 92.972C770.4 86.572 766.9 82.672 761.3 81.772C755.3 80.872 749.6 83.772 746.9 89.072C745.3 92.272 744.7 95.672 744.7 99.272C744.7 110.072 744.6 120.972 744.7 131.772C744.7 133.772 744.2 134.372 742.2 134.272C739.1 134.072 736 134.072 733 134.272C731 134.372 730.5 133.672 730.5 131.772C730.6 115.572 730.5 99.272 730.5 83.072C730.5 80.372 730.6 77.572 730.5 74.872C730.4 72.672 730.9 71.672 733.3 71.872C735.9 72.072 738.5 72.072 741 71.872C743.4 71.672 744 72.672 743.8 74.772C743.8 76.372 743.9 77.872 743.9 80.172Z" fill="#425563"/>
<path d="M584.8 79.8721C587.1 77.4721 588.8 75.6721 590.9 74.1721C598.9 68.9721 610.3 69.0721 617.9 74.7721C623.6 79.0721 625.7 85.3721 626.1 92.0721C626.5 101.472 626.3 110.872 626.3 120.272C626.3 124.172 626.2 128.072 626.4 131.972C626.5 133.872 625.8 134.372 624 134.272C620.9 134.172 617.8 134.072 614.8 134.272C612.8 134.372 612.3 133.772 612.3 131.772C612.4 120.172 612.4 108.572 612.3 97.0721C612.3 95.2721 612.2 93.3721 611.8 91.5721C610.4 85.3721 606.8 82.0721 601.2 81.7721C594.7 81.3721 589.5 84.6721 587.3 90.1721C586 93.4721 585.6 96.9721 585.6 100.472C585.6 110.872 585.5 121.272 585.6 131.672C585.6 133.872 585 134.372 582.9 134.272C580 134.072 577.1 134.072 574.2 134.272C571.9 134.472 571.5 133.572 571.5 131.472C571.6 113.672 571.6 95.7721 571.6 77.9721C571.6 71.8721 571.6 71.8721 577.7 71.8721C579.4 71.8721 581.2 71.9721 582.9 71.8721C584.4 71.7721 585 72.2721 584.9 73.8721C584.7 75.6721 584.8 77.3721 584.8 79.8721Z" fill="#425563"/>
<path d="M491.3 94.6721C491 94.6721 490.6 94.6721 490.3 94.6721C488.5 94.6721 486.5 95.0721 484.9 94.4721C483 93.7721 483.8 91.2721 483.1 89.6721C481.1 85.0721 477.8 82.0721 472.7 81.3721C466.8 80.6721 462.1 82.6721 458.8 87.7721C455.2 93.4721 454.8 99.8721 455.2 106.272C455.5 111.072 456.6 115.672 459.6 119.572C463 123.972 467.5 125.572 472.8 124.772C478 123.972 481.2 120.572 482.9 115.872C483.2 114.972 483.7 114.072 483.6 113.272C483.5 110.572 485 110.472 487.1 110.572C490.3 110.672 493.4 110.772 496.6 110.572C498.5 110.472 498.8 111.172 498.6 112.872C497.1 124.772 488.2 134.072 476.2 135.772C466.8 137.072 457.9 135.672 450.5 129.172C446.2 125.372 443.4 120.672 441.9 115.072C439.5 105.972 439.6 96.8721 443 88.0721C447 77.7721 454.8 71.9721 465.6 70.3721C473.3 69.2721 480.7 70.3721 487.4 74.7721C493.9 79.0721 497.5 85.1721 498.6 92.8721C498.8 94.4721 498.2 94.7721 496.9 94.6721C495 94.6721 493.2 94.6721 491.3 94.6721Z" fill="#425563"/>
<path d="M416.1 80.672C418.1 78.572 419.5 76.372 421.6 74.872C426.3 71.572 431.4 70.672 437 71.272C438.5 71.472 439 71.972 439 73.472C438.9 76.372 438.9 79.272 439 82.172C439.1 83.872 438.4 83.972 436.9 83.872C431 83.172 425.6 84.172 421.4 88.772C418.1 92.372 417 96.972 416.9 101.672C416.7 111.672 416.7 121.672 416.8 131.672C416.8 133.672 416.3 134.472 414.2 134.372C411.2 134.172 408.2 134.172 405.2 134.372C403.2 134.472 402.7 133.772 402.7 131.872C402.8 113.672 402.7 95.372 402.7 77.172C402.7 77.072 402.7 76.972 402.7 76.972C402.7 72.072 402.7 72.072 407.7 72.072C409.8 72.072 411.9 72.072 413.9 72.072C415.2 72.072 415.6 72.472 415.7 73.772C415.9 75.872 415.6 78.172 416.1 80.672Z" fill="#425563"/>
<path d="M704.7 103.372C704.7 93.7721 704.8 84.2721 704.6 74.6721C704.6 72.3721 705.3 71.8721 707.4 71.9721C710.5 72.1721 713.6 72.0721 716.6 71.9721C718 71.9721 718.5 72.3721 718.5 73.8721C718.5 93.4721 718.5 112.972 718.5 132.572C718.5 134.172 717.9 134.472 716.5 134.472C713.3 134.372 710.2 134.372 707 134.472C705.1 134.572 704.6 133.972 704.6 132.072C704.8 122.472 704.7 112.972 704.7 103.372Z" fill="#425563"/>
<path d="M711.1 60.3721C709.3 60.0721 706.5 61.3721 705.1 59.7721C703.8 58.3721 704.7 55.6721 704.8 53.4721C704.8 51.3721 703.8 48.4721 705.3 47.2721C706.6 46.2721 709.3 46.8721 711.3 46.8721C713.6 46.8721 716.7 46.0721 718.1 47.2721C719.7 48.6721 718.6 51.7721 718.6 54.1721C718.7 60.2721 718.6 60.2721 712.5 60.2721C712.2 60.3721 711.8 60.3721 711.1 60.3721Z" fill="#425563"/>
<path d="M868.8 51.0722C868.8 54.1722 868.8 57.2722 868.8 60.3722C868.8 61.3722 868.9 62.3722 867.3 62.3722C865.8 62.2722 866.1 61.2722 866.1 60.4722C866.1 56.6722 866.1 52.7722 866.1 48.9722C866.1 48.0722 865.6 46.6722 867.2 46.7722C868.5 46.7722 870.1 46.0722 870.7 48.0722C871.9 51.7722 873.2 55.4722 874.5 59.2722C875.7 55.6722 877.1 52.2722 878 48.7722C878.6 46.4722 880.1 46.5722 881.8 46.6722C883.7 46.8722 882.9 48.3722 882.9 49.3722C883 52.9722 883 56.5722 882.9 60.0722C882.9 60.9722 883.4 62.1722 881.7 62.2722C880 62.2722 880.4 61.0722 880.4 60.1722C880.4 57.1722 880.4 54.2722 880.4 51.2722C880.2 51.2722 880 51.1722 879.8 51.1722C878.8 53.9722 877.9 56.8722 876.8 59.6722C876.4 60.7722 876.4 62.2722 874.4 62.2722C872.4 62.2722 872.4 60.7722 872 59.6722C870.9 56.7722 869.9 53.7722 868.9 50.8722C869 51.0722 868.9 51.0722 868.8 51.0722Z" fill="#425563"/>
<path d="M856.7 55.8722C856.7 54.2722 856.6 52.6722 856.7 51.1722C856.8 49.5722 856.2 49.0722 854.7 49.2722C854 49.3722 853.2 49.2722 852.5 49.2722C851.8 49.2722 851.5 48.9722 851.5 48.1722C851.5 47.4722 851.5 46.7722 852.5 46.7722C856.2 46.7722 859.8 46.7722 863.5 46.7722C864.2 46.7722 864.5 47.2722 864.5 47.8722C864.5 48.6722 864.2 49.0722 863.4 49.1722C862.2 49.2722 860.6 48.5722 859.8 49.5722C858.9 50.7722 859.5 52.4722 859.5 53.8722C859.4 56.1722 859.5 58.4722 859.5 60.8722C859.5 61.8722 859.3 62.3722 858.1 62.3722C856.9 62.3722 856.8 61.6722 856.8 60.7722C856.7 59.1722 856.7 57.4722 856.7 55.8722Z" fill="#425563"/>
</svg>
