<svg width="551" height="100" viewBox="0 0 551 100" fill="none" xmlns="http://www.w3.org/2000/svg">
<g clip-path="url(#clip0_514_128)">
<path d="M0.0248306 50.0746C0.0248306 48.3084 0.0248306 46.5671 0.0248306 44.801C0.213185 35.3226 3.32892 26.1345 8.94485 18.4967C14.5608 10.8589 22.4019 5.14522 31.393 2.13928C41.1057 -1.04709 51.6361 -0.667874 61.0945 3.20891C61.7043 3.45768 62.3271 3.6736 62.9601 3.8557C73.4174 6.72685 82.5349 13.178 88.7222 22.0839C94.9095 30.9898 97.7739 41.7852 96.8159 52.587C96.318 60.2464 93.899 67.657 89.7818 74.1349C85.6647 80.6128 79.9821 85.9492 73.2586 89.6517C72.7475 89.9372 72.2644 90.2704 71.8159 90.6467C63.501 97.186 53.0987 100.492 42.5342 99.9521C31.9697 99.4125 21.9584 95.0639 14.3532 87.7114C6.87576 80.6304 2.00321 71.2359 0.522336 61.0447C0.0337718 57.8188 -0.132878 54.5524 0.0248306 51.2935C0.0248306 50.8955 0.0248306 50.4726 0.0248306 50.0746V50.0746ZM46.0696 9.95026C41.1221 9.88449 36.1974 10.6324 31.4925 12.1642C27.9688 13.1274 24.7986 15.0883 22.3631 17.8109L21.8905 18.2835C16.5863 23.8629 12.8479 30.7429 11.0528 38.229C9.25775 45.7151 9.46946 53.5423 11.6666 60.9204C13.1972 66.9238 16.0389 72.5135 19.9874 77.2878C23.9358 82.062 28.893 85.9023 34.5024 88.5323C35.0194 88.8122 35.5716 89.0213 36.1442 89.1542C38.1924 89.5459 40.26 89.8282 42.3383 90C51.5401 90.6221 60.6756 88.0571 68.2089 82.7363C72.9416 79.4838 76.9785 75.3205 80.0837 70.4898C83.1888 65.6592 85.2999 60.2579 86.2935 54.602C86.7051 52.8591 86.8726 51.0676 86.791 49.2786C86.1746 41.3603 83.3093 33.7828 78.5323 27.4378C74.8686 22.1845 70.0223 17.8652 64.3837 14.8277C58.7452 11.7902 52.472 10.1196 46.0696 9.95026V9.95026ZM75.2736 12.1891L75.0497 12.388C75.3731 12.6617 75.7711 12.9105 76.0696 13.209C80.5727 17.7599 84.0895 23.19 86.4007 29.1605C88.7118 35.131 89.7677 41.5137 89.5025 47.9104C89.5025 49.3781 89.5025 50.8458 89.5025 52.3134C89.5953 55.4274 89.387 58.543 88.8806 61.6169C87.8878 67.7193 85.6891 73.5627 82.4129 78.806C82.2674 79.0781 82.1427 79.3608 82.0398 79.6517C100.771 61.0448 98.2338 27.1393 75.2736 12.1891V12.1891ZM22.0149 83.0846C14.0729 75.3578 9.06288 65.1111 7.84223 54.098C6.62157 43.0848 9.2661 31.9898 15.3233 22.7114C15.1741 22.7114 15.0746 22.7114 15.0497 22.7114L14.3532 23.4079C8.62398 29.6242 4.79175 37.3491 3.30839 45.6716C2.88625 47.4547 2.73532 49.2913 2.86065 51.1194C3.58478 57.7425 5.76815 64.1228 9.25367 69.801C12.4543 75.1322 16.8163 79.6727 22.0149 83.0846V83.0846ZM60.2736 94.3283C59.6268 94.3283 58.98 94.5522 58.3084 94.6268L56.3432 94.8756C49.342 95.5191 42.2883 94.4785 35.7711 91.8408C35.2395 91.6011 34.6907 91.4016 34.1293 91.2438C27.8743 89.644 22.0393 86.7105 17.0242 82.6444C12.0092 78.5783 7.93282 73.4757 5.07458 67.6866L4.60194 66.8905C11.4427 91.2189 38.3084 103.98 60.2736 94.3283V94.3283ZM84.9751 33.2089C84.984 33.1096 84.984 33.0097 84.9751 32.9104C84.984 32.8028 84.984 32.6946 84.9751 32.587C83.1994 26.9036 80.2642 21.6502 76.3551 17.1587C72.4459 12.6672 67.6477 9.03538 62.2636 6.49251C61.6719 6.20382 61.0445 5.99471 60.3979 5.87062C52.7689 4.32364 44.8572 4.97938 37.587 7.76119L36.8656 8.08459C46.5052 6.44652 56.416 8.01963 65.0746 12.5622C73.7516 17.1309 80.7288 24.3696 84.9751 33.2089V33.2089ZM4.50241 33.2089L4.70142 33.0597C4.87555 32.7363 5.04967 32.4129 5.19893 32.0895C9.24761 24.1576 15.513 17.5725 23.2338 13.1343C24.0184 12.675 24.7744 12.1682 25.4974 11.6169C30.4439 7.79074 36.1523 5.06805 42.2388 3.63183C43.8557 3.2587 45.4975 2.98503 47.2139 2.66165C30.796 0.970103 10.5223 12.2885 4.45269 33.2835L4.50241 33.2089ZM49.5771 92.388H50.3233C57.0864 92.745 63.8298 91.3844 69.9253 88.4328C70.8284 88.017 71.6663 87.4724 72.4129 86.8159C77.5722 82.2582 81.557 76.5242 84.0298 70.0995C84.5024 68.9055 84.9004 67.6119 85.3233 66.5174C77.5124 81.1194 65.9203 90.0497 49.5273 92.4627L49.5771 92.388Z" fill="#2A3147"/>
<path d="M263.532 88.5822H256.468V62.0399C256.551 58.8759 256.132 55.7188 255.224 52.6867C254.917 51.8409 254.568 51.0107 254.179 50.1992C253.545 48.7486 252.557 47.4804 251.305 46.5112C250.053 45.5419 248.578 44.9026 247.015 44.6519C244.955 44.229 242.831 44.229 240.771 44.6519C239.181 44.9667 237.674 45.6092 236.347 46.5386C235.019 47.468 233.9 48.6639 233.06 50.0499C231.604 52.301 230.677 54.8523 230.348 57.5126C230.092 59.4008 229.959 61.3036 229.95 63.2091C229.95 71.1444 229.95 79.0797 229.95 86.9901V88.2837C227.585 88.5225 225.201 88.5225 222.836 88.2837V59.3783C222.855 56.9232 222.57 54.4751 221.99 52.0896C221.841 51.5175 221.642 50.9703 221.443 50.423C220.85 48.8307 219.827 47.4341 218.487 46.3888C217.148 45.3435 215.544 44.6906 213.856 44.5026C210.997 43.9734 208.044 44.3945 205.448 45.7017C202.852 47.0089 200.755 49.1302 199.478 51.7414C197.966 54.6811 197.117 57.9161 196.99 61.219C196.99 62.0648 196.99 62.9106 196.99 63.7066V88.5822H189.701C189.701 88.1842 189.701 87.7613 189.701 87.3384C189.701 76.2937 189.701 65.2489 189.701 54.2041C189.701 49.8011 189.527 45.3981 189.428 40.9951C189.428 40.622 189.428 40.2737 189.428 39.9006C191.677 39.6624 193.945 39.6624 196.194 39.9006L196.617 48.0101C196.866 47.6867 197.015 47.5126 197.139 47.3136C199.24 43.9365 202.361 41.3159 206.051 39.8311C209.741 38.3463 213.807 38.0744 217.662 39.0548C219.721 39.6158 221.633 40.6215 223.262 42.0012C224.891 43.3808 226.197 45.1007 227.089 47.0399C227.239 47.3135 227.363 47.5623 227.487 47.8359C227.612 48.1096 227.686 48.3086 227.861 48.6569C228.084 48.3086 228.259 48.0598 228.408 47.7862C229.678 45.4151 231.479 43.3703 233.672 41.8123C235.864 40.2542 238.388 39.2253 241.045 38.8061C244.71 38.1434 248.482 38.3738 252.04 39.4778C254.367 40.2317 256.482 41.5266 258.211 43.2563C259.941 44.9859 261.236 47.101 261.99 49.428C263.026 52.2212 263.54 55.1805 263.507 58.1593C263.507 68.1096 263.507 78.0184 263.507 87.8857C263.582 87.9106 263.557 88.1593 263.532 88.5822Z" fill="#2A3147"/>
<path d="M450.324 89.9006C444.516 89.9193 438.853 88.0897 434.154 84.6767C431.476 82.6932 429.237 80.178 427.576 77.2886C425.915 74.3993 424.869 71.1981 424.503 67.8857C423.716 62.7005 424.468 57.3984 426.667 52.6369C428.328 48.9961 430.869 45.8258 434.061 43.4114C437.253 40.997 440.995 39.4144 444.95 38.806C450.27 37.7186 455.791 38.2293 460.821 40.2737C464.873 41.8228 468.428 44.4442 471.105 47.8575C473.782 51.2707 475.481 55.3475 476.02 59.6518C477.032 65.2197 476.202 70.9656 473.657 76.02C471.998 79.4288 469.555 82.396 466.528 84.679C463.502 86.9619 459.977 88.4956 456.244 89.1544C454.353 89.5524 452.338 89.6518 450.324 89.9006ZM468.906 64.03C468.906 62.7613 468.731 61.5424 468.508 60.1991C467.876 55.4934 465.474 51.2055 461.791 48.209C458.283 45.391 453.843 43.9968 449.353 44.3036C446.533 44.352 443.768 45.0917 441.3 46.4579C438.832 47.8241 436.737 49.775 435.199 52.1394C432.955 55.6904 431.765 59.8047 431.765 64.0051C431.765 68.2055 432.955 72.3198 435.199 75.8708C437.406 79.3049 440.796 81.8098 444.726 82.9106C447.404 83.7046 450.222 83.9083 452.985 83.5075C455.867 83.2089 458.625 82.1794 460.998 80.5164C463.37 78.8535 465.279 76.6123 466.542 74.0051C468.105 70.9127 468.915 67.4947 468.906 64.03V64.03Z" fill="#2A3147"/>
<path d="M357.811 89.9005C351.537 89.9412 345.447 87.785 340.597 83.8059C335.784 79.7888 332.709 74.0669 332.015 67.8358C331.245 62.6458 332.015 57.3439 334.229 52.5871C335.896 48.9498 338.442 45.7851 341.639 43.379C344.835 40.9729 348.581 39.4012 352.537 38.8059C358.048 37.6796 363.772 38.2789 368.93 40.5224C372.841 42.1208 376.256 44.7299 378.826 48.0825C381.396 51.4351 383.029 55.4107 383.557 59.602C384.544 65.2157 383.67 70.9978 381.07 76.0697C379.403 79.4679 376.957 82.4244 373.931 84.6982C370.905 86.9719 367.385 88.4988 363.657 89.1543C361.841 89.5771 359.801 89.6517 357.811 89.9005ZM376.443 64.0548C376.319 62.7861 376.269 61.5672 376.045 60.2239C375.416 55.4847 372.995 51.1669 369.279 48.1592C365.766 45.3546 361.324 43.9778 356.841 44.3035C354.022 44.3471 351.258 45.0821 348.79 46.444C346.322 47.8059 344.226 49.7531 342.687 52.1144C340.458 55.6754 339.276 59.7916 339.276 63.9925C339.276 68.1935 340.458 72.3097 342.687 75.8707C344.929 79.3237 348.351 81.8434 352.314 82.9602C355.007 83.7146 357.83 83.8926 360.597 83.4826C363.163 83.2124 365.632 82.3563 367.815 80.9805C369.997 79.6046 371.834 77.7457 373.184 75.5473C375.335 72.1013 376.464 68.1166 376.443 64.0548Z" fill="#2A3147"/>
<path d="M174.926 39.7015H181.99C182.214 55.9453 181.741 72.0398 182.314 88.3831C180.096 88.5765 177.865 88.5765 175.647 88.3831C175.345 85.6906 175.195 82.9831 175.199 80.2736C175.025 80.398 174.901 80.4229 174.851 80.4975C173.725 82.5023 172.213 84.2642 170.403 85.6817C168.593 87.0992 166.52 88.1441 164.304 88.7562C159.788 90.2063 154.916 90.0923 150.473 88.4328C148.451 87.6902 146.611 86.525 145.076 85.0151C143.54 83.5052 142.344 81.6853 141.567 79.6766C140.257 76.5268 139.621 73.1371 139.702 69.7264C139.702 60.0498 139.702 50.3731 139.702 40.6965V39.5522H146.816V66.6418C146.761 69.3574 147.071 72.0682 147.736 74.7015C148.035 75.7576 148.434 76.7823 148.93 77.7612C149.77 79.4055 151.024 80.8026 152.568 81.8146C154.112 82.8266 155.894 83.4187 157.736 83.5323C159.887 83.8289 162.076 83.6592 164.154 83.0348C167.624 81.9223 170.518 79.4927 172.214 76.2686C174.082 72.7509 174.999 68.8068 174.876 64.8259V39.7015H174.926Z" fill="#2A3147"/>
<path d="M328.06 88.5822H320.995V87.2887C320.995 78.5822 320.995 69.8757 320.995 61.1941C321.024 58.6825 320.748 56.1766 320.174 53.7314C319.713 51.04 318.291 48.6069 316.174 46.8827C314.056 45.1585 311.386 44.2599 308.657 44.3533C305.98 44.1689 303.308 44.7786 300.976 46.1061C298.644 47.4336 296.755 49.4199 295.547 51.816C294.138 54.324 293.289 57.1077 293.06 59.9752C292.91 61.4926 292.861 63.0349 292.861 64.5772C292.861 72.1228 292.861 79.6436 292.861 87.1394V88.5822H285.821C285.572 72.3384 286.119 56.2439 285.448 39.9255C287.672 39.6921 289.915 39.6921 292.139 39.9255C292.512 42.5374 292.488 45.1991 292.637 48.01C292.772 47.9058 292.897 47.7892 293.01 47.6618C294.265 45.4736 295.973 43.5784 298.019 42.1028C300.066 40.6271 302.403 39.605 304.876 39.1045C309.433 37.9332 314.254 38.3636 318.532 40.3235C321.935 41.9399 324.601 44.7835 325.995 48.2836C327.296 51.1343 327.975 54.2297 327.985 57.3633C327.985 67.5872 327.985 77.8111 327.985 88.0598C328.109 88.0349 328.085 88.209 328.06 88.5822Z" fill="#2A3147"/>
<path d="M497.537 88.408H490.075C490.224 87.9852 490.348 87.6121 490.498 87.2638L502.065 60.6468L510.721 40.7463C510.846 40.4727 510.97 40.1991 511.07 39.9255C511.121 39.7506 511.23 39.5984 511.379 39.4943C511.528 39.3902 511.709 39.3404 511.891 39.3533H516.866C517.463 39.3533 517.612 39.7265 517.786 40.1494C519.005 42.9603 520.274 45.7961 521.418 48.632C526.974 61.5175 532.513 74.4114 538.035 87.3135L538.458 88.3334C535.979 88.6037 533.481 88.6453 530.995 88.4578C530.995 88.1593 530.672 87.7862 530.522 87.413L526.393 77.4628C525.97 76.418 525.945 76.418 524.801 76.418H503.557C502.413 76.418 502.413 76.418 501.965 77.4877C500.597 80.7961 499.254 84.1295 497.886 87.4379C497.91 87.7116 497.687 88.0349 497.537 88.408ZM505 70.3484C505.945 70.5972 522.413 70.5723 523.358 70.3484C523.358 69.9753 523.134 69.6021 522.985 69.229C522.363 67.6121 521.692 65.9703 521.045 64.2538C518.93 58.9305 516.841 53.632 514.726 48.3335C514.577 47.9852 514.552 47.5374 514.105 47.3882C513.458 48.7812 505.199 69.5524 505.124 70.3484H505Z" fill="#B6BBC9"/>
<path d="M380.224 39.6765H388.184L404.005 80.8954H404.254C406.94 74.0298 409.577 67.1641 412.214 60.2735L420.199 39.6516H427.861L407.96 88.4825H400.149C393.532 72.2801 386.891 56.0115 380.224 39.6765Z" fill="#2A3147"/>
<path d="M132.239 88.5821H125.274V9.72632H132.239V88.5821Z" fill="#2A3147"/>
<path d="M277.96 88.5821H271.095C270.871 87.7861 270.796 41.3184 271.095 39.7761H277.96C278.11 40.4726 278.184 86.8159 277.96 88.5821Z" fill="#2A3147"/>
<path d="M543.93 88.3832V39.3533H550.323C550.323 39.6269 550.448 39.9006 550.473 40.1742C550.498 40.4478 550.473 40.8956 550.473 41.2687C550.473 56.4097 550.473 71.5589 550.473 86.7165C550.473 87.2389 550.473 87.7862 550.473 88.3832H543.93Z" fill="#B6BBC9"/>
<path d="M269.478 20.8209C269.477 20.157 269.61 19.4997 269.868 18.8878C270.126 18.276 270.503 17.7219 270.978 17.2583C271.454 16.7946 272.017 16.4307 272.635 16.1882C273.253 15.9456 273.913 15.8292 274.577 15.8458C275.555 15.8703 276.505 16.1827 277.306 16.744C278.108 17.3053 278.726 18.0907 279.084 19.0016C279.441 19.9126 279.522 20.9088 279.316 21.8655C279.111 22.8222 278.627 23.6971 277.927 24.3805C277.226 25.0639 276.34 25.5255 275.378 25.7076C274.417 25.8897 273.423 25.7842 272.521 25.4042C271.619 25.0243 270.849 24.3868 270.308 23.5715C269.767 22.7563 269.478 21.7995 269.478 20.8209Z" fill="#2A3147"/>
<path d="M481.518 80.8707C482.044 80.8285 482.573 80.8977 483.071 81.0739C483.568 81.25 484.023 81.529 484.406 81.8928C484.789 82.2567 485.09 82.697 485.291 83.1853C485.492 83.6735 485.588 84.1987 485.572 84.7264C485.572 85.8018 485.145 86.8331 484.385 87.5935C483.624 88.3539 482.593 88.7811 481.518 88.7811C480.442 88.7811 479.411 88.3539 478.65 87.5935C477.89 86.8331 477.463 85.8018 477.463 84.7264C477.458 84.2018 477.562 83.682 477.767 83.199C477.972 82.7161 478.273 82.2804 478.654 81.9189C479.034 81.5574 479.484 81.2778 479.977 81.0975C480.469 80.9172 480.994 80.84 481.518 80.8707V80.8707Z" fill="#B6BBC9"/>
</g>
<defs>
<clipPath id="clip0_514_128">
<rect width="550.473" height="100" fill="white"/>
</clipPath>
</defs>
</svg>
