<?xml version="1.0" encoding="utf-8"?>
<!-- Generator: Adobe Illustrator 24.2.3, SVG Export Plug-In . SVG Version: 6.00 Build 0)  -->
<svg version="1.1" id="Layer_1" xmlns="http://www.w3.org/2000/svg" xmlns:xlink="http://www.w3.org/1999/xlink" x="0px" y="0px"
	 viewBox="0 0 8844 1304" style="enable-background:new 0 0 8844 1304;" xml:space="preserve">
<style type="text/css">
	.st0{fill:#263142;}
</style>
<g>
	<path class="st0" d="M8206.2,1239.6c-9.3-1.3-18.7-2.7-28-3.8c-196.9-21.6-373.3-147.9-458.7-333.9c-27.2-59.3-44.4-121.3-50-186.4
		c-14.9-172.9,35-324.7,151.9-453c86.3-94.6,193.7-153.5,319.7-176.3c218.9-39.5,436,48.6,567.1,226.9
		c57.5,78.2,92.7,165.5,106.9,261.4c1.4,9.7,1.7,19.5,2.7,29.3c0.4,4,1.4,7.9,2.1,11.8c0,28.5,0,56.9,0,85.4
		c-0.7,3.9-1.7,7.9-2.1,11.8c-0.5,5-0.2,10.2-0.9,15.2c-7.1,58.5-22.6,114.7-46.4,168.6c-82.2,185.7-258.2,315.5-460.1,339.1
		c-9.7,1.1-19.4,2.6-29,3.9C8256.3,1239.6,8231.3,1239.6,8206.2,1239.6z M8343.3,548.4c0,81.6,0,160.6,0,240c11,0,21.3,0,32.5,0
		c0-4.8,0-8.8,0-12.7c0-44.7,0-89.4,0-134.1c0-5.1,0.3-10.2,0.9-15.2c3.5-28,27.4-49.9,55.7-51.2c30.9-1.4,56.5,16.6,62.9,44.9
		c1.5,6.5,1.6,13.4,1.6,20.2c0.1,45.4,0.1,90.7,0.1,136.1c0,3.9,0.2,7.9,0.4,11.8c11.5,0,21.8,0,32.7,0c0-4.5,0-8.2,0-11.9
		c0-33.9,0-67.7,0-101.6c0-12.9-0.1-25.7,0.1-38.6c0.2-23.6,10.1-41.7,30.9-53.4c35-19.7,80.2-0.6,88.8,37.7
		c1.5,6.5,1.5,13.4,1.5,20.2c0.1,45.4,0.1,90.7,0.1,136.1c0,3.9,0.4,7.8,0.6,11.7c11.4,0,21.4,0,31.9,0c0.2-3.5,0.6-6.5,0.6-9.5
		c0-47.4,0.1-94.8,0-142.2c0-6.1,0-12.3-1.3-18.2c-8.2-37.7-30.8-63.6-68-73.3c-36.8-9.7-69.8-0.7-95.4,29.2
		c-1.9,2.2-3.9,4.2-5.9,6.4c-31.4-41.7-96.5-55.9-144.5-12.1C8361.5,562.4,8353.2,556.1,8343.3,548.4z M8290.7,668.8
		c1-72-60.5-128.3-128.2-127c-70,1.3-126.3,57.2-126.2,127.3c0.1,69.8,57.8,127.5,127.5,127.4C8234.1,796.4,8291,739.2,8290.7,668.8
		z M7993.4,588.9c-26.3-38.7-81.1-56-131.2-42.6c-55.1,14.7-93.4,66.4-93.2,124.7c0.3,63.7,50.1,110,95.2,121.5
		c52.7,13.5,106.3-9.4,127.8-41.5c-8.1-6.3-16.3-12.7-23.5-18.2c-11.6,7.9-21.7,15.8-32.8,22c-11.3,6.4-24.3,8.1-37.3,8.5
		c-13,0.4-25.6-1.8-37.8-6.5c-12.2-4.7-22.7-12-31.8-21.3c-32.8-33.2-36.1-88-7.3-124.5c14.9-18.8,33.9-30.9,57.8-34.6
		c35.4-5.5,65.3,5.2,89.3,32C7977.6,601.4,7985.5,595.1,7993.4,588.9z"/>
	<path class="st0" d="M1944.5,1059.6c-33.1,0-64.8,0-95.9,0c-0.8-0.7-1.1-0.8-1.3-1.1c-0.2-0.3-0.4-0.6-0.4-0.9c-0.3-2-0.7-4-0.7-6
		c0-241.1,0-482.3,0.1-723.4c0-1,0.5-1.9,1.3-4.4c7.1,5.4,13.7,10.4,20.2,15.5c7,5.4,13.9,10.9,20.8,16.3c6.7,5.2,13.3,10.5,20,15.7
		c6.6,5.2,13.3,10.3,20.5,15.8c64.1-64,141.4-91.9,230.3-83.4c88.1,8.4,159.2,49.1,211.9,122.5c3.2-4.2,6-7.9,8.8-11.6
		c32.4-42.8,72.5-75.6,123.2-94.5c45.3-16.9,92.1-20.3,140-15.7c88.4,8.3,202.6,74.5,240.8,208c6.6,23.2,9.7,47,9.7,71.2
		c0,155.5,0,310.9,0,466.4c0,3-0.3,6-0.5,9.6c-32.5,0-64.4,0-97.8,0c0-5.3,0-9.9,0-14.5c0-149.7,0-299.4,0-449.1
		c0-24.8-1.7-49.5-10.3-73c-22.5-61.9-67.4-100.3-130.1-115.9c-68.7-17.1-130.1,0-182,48.7c-33.2,31.2-49.6,70.3-53,115.3
		c-0.7,8.8-0.5,17.6-0.5,26.4c0,149.4,0,298.7,0,448.1c0,4.3,0,8.7,0,12.8c-8.2,2.5-87.5,2.9-98.7,0.5c0-4.1,0-8.4,0-12.7
		c0-150.4-0.1-300.7,0-451.1c0-23.2-1.7-46.1-9.1-68.1c-21.7-64-67.1-103.8-131.4-119.7c-71.6-17.7-134.8,1.3-187,53.7
		c-28.1,28.2-43,62.9-47,102.2c-1.2,12.1-1.7,24.3-1.7,36.5c-0.1,148.7-0.1,297.4-0.1,446
		C1944.5,1049.7,1944.5,1054.1,1944.5,1059.6z"/>
	<path class="st0" d="M4340.6,473.9C4173.1,621.7,4006,769.1,3839,916.5c19.1,25.7,97.7,55.8,153.5,58.9c57,3.2,111.2-7,161.4-35.2
		c50.1-28.1,88.2-67.9,115.6-119.4c28.8,16.2,56.9,32,85.9,48.4c-33.7,63.2-81.1,112-141.2,149c-76.1,46.8-158.9,62.9-247.3,54
		c-172.9-17.3-327.7-174.1-341.6-348.1c-7.5-94,10.5-181.5,66-259c54.3-75.8,124.8-130.6,215.6-155.7
		C4109.6,253.3,4277.3,368.4,4340.6,473.9z M4202.5,465.1c-97.2-92.7-284.8-101.7-398.5,14.4c-113.3,115.7-93.1,289.1-31.5,367.1
		C3915.9,719.5,4059.1,592.3,4202.5,465.1z"/>
	<path class="st0" d="M5978.6,930c73.1,53.8,153.1,69.3,239.1,51.1c87-18.4,150.2-70.1,193.3-148.1c28.4,16,56.3,31.7,85.1,47.9
		c-1.4,3.2-2.4,5.9-3.8,8.4c-56.8,97.5-139.9,161-249.5,187c-92.9,22-183.7,12.5-267.8-34.2c-93.9-52.1-160.6-128.5-193.6-232.1
		c-16.3-51.1-18.9-103.6-14.1-156.7c15.6-174.9,156.3-298.4,278.8-331.3c121.9-32.7,234.7-11.9,337.9,60.8
		c35.8,25.2,66.4,55.6,91.1,91.8c2.3,3.3,4.3,6.7,7.2,11.1C6314.5,633.7,6147.2,781.2,5978.6,930z M6343.6,477.3
		c-96.8-91.6-274.1-97.9-384,0.7c-124.3,111.6-114.4,288-46.4,381.4C6056.4,732.1,6199.7,605,6343.6,477.3z"/>
	<path class="st0" d="M1597.3,828c28.9,16.3,56.8,32,85.6,48.2c-33.6,63.2-81.1,112-141.1,149c-78.4,48.3-163.7,63.6-254.4,53.1
		c-164.9-19.1-327.9-173.8-336.4-367.6c-8-182.6,114.9-352.4,292.5-396.7c89.4-22.3,176.9-14.8,260.6,25
		c67.4,32,123.6,77.4,164.5,141.5c-167.9,148.1-335.1,295.7-502.5,443.3c55.5,48.8,149.7,71.6,237.3,52.4
		C1490.4,957.3,1553.6,906.3,1597.3,828z M1098.6,853.6c12.2-7.8,426.4-376.5,430.2-382.7c-97-90.7-270.7-95-378.5-1.9
		C1023.9,578.2,1028.7,754.3,1098.6,853.6z"/>
	<path class="st0" d="M817.6,691.8c-0.1,167.8-111.3,321.5-269.2,371.8c-53,16.9-107.3,20.6-162.6,15.7
		C215,1064.1,84.4,921.6,51.9,794.8c-8.6-33.7-14.1-67.8-13.9-102.3c0.3-46.5,7.4-92.3,23.8-136.3c26.4-70.9,71.7-127.6,130.6-174
		c53.6-42.2,114.5-67.1,182.1-76.8c174.7-24.9,346.8,72.8,414.4,235.8C808.9,589.4,817.3,639.8,817.6,691.8z M427.5,983.1
		c161.5,2.2,291.2-132.6,292.1-289.3c0.9-159.9-130.6-293.6-291.4-293.5c-165.7,0.1-290.9,133.4-291.6,290.2
		C136,849.4,262.1,984.6,427.5,983.1z"/>
	<path class="st0" d="M5097.7,878.5c26.4,20.4,52.3,40.5,78.9,61c-8.4,8.9-15.9,17.2-23.9,25c-61.3,59.4-133.9,96-218.8,106.3
		c-144.2,17.5-261.8-32.3-354.8-142.5c-44.9-53.2-73.8-114.4-83.1-183.5c-18.6-138.4,21.8-256.1,126.2-350.4
		c52.7-47.6,113.2-80.5,183.6-92.2c143.7-23.9,267.5,13,366.1,123.7c2.7,3,5.1,6.2,8,9.8c-25.8,20.4-50.9,40.3-76.7,60.7
		c-3.4-3.7-6.4-6.9-9.3-10c-42.3-45.4-93.2-76.1-154.7-87.2c-154.5-28-273.7,52.4-324.9,165.4c-22.2,49-27.6,100.8-22.3,154
		c8.6,86.5,50.2,153.9,119.5,204.9c40.2,29.6,85.7,45.6,135.3,50.6c39.8,4,79.2,1.6,117.7-9.3c49.2-13.8,90.5-40.5,125.3-77.7
		C5092.2,884.4,5094.7,881.7,5097.7,878.5z"/>
	<path class="st0" d="M3055.3,942.9c28.5-15.4,56.6-30.7,85-46.1c1.4,2.2,2.4,3.5,3.2,5c23.4,42.5,59.5,64.2,107.8,66.5
		c46.5,2.2,85-13.6,114-50.5c46.4-59.2,31.1-151.3-31.6-192.8c-11.1-7.4-23.3-12.3-36-16c-28-8.1-55.9-16-83.8-24.5
		c-57.4-17.4-101.4-52-126.6-106.6c-55.9-121.2,21-250.8,138.8-272.1c70.8-12.8,131.8,8.3,181.7,60.5c12.7,13.3,22.4,28.9,30.1,45.6
		c1,2.1,1.8,4.4,2.6,6.6c0.2,0.6,0,1.3,0,3c-28.8,12.1-58,24.4-87.6,36.8c-2-3.9-3.6-6.8-5.1-9.8c-13.4-27.1-35.5-42-65-46.2
		c-13.1-1.9-26.4-2.1-39.4,0.5c-42.1,8.5-74.8,47.4-75.5,90.4c-0.2,10.4,0.7,21.1,2.9,31.2c5.7,26.6,21.7,45.6,46.3,56.8
		c10.4,4.7,21.5,8.1,32.5,11.4c26.2,7.9,52.5,15.7,78.9,23c95.7,26.6,148.2,109.8,158.7,179.4c9.6,63.6-0.5,123.1-38.6,175.8
		c-44.5,61.6-105.3,94.3-181.5,95.9c-92,1.9-159.8-40.5-208.3-116.8C3057.6,948,3056.7,945.9,3055.3,942.9z"/>
	<path class="st0" d="M7058,955.1c28.6-15.5,56.4-30.6,84.8-46c1.6,2.4,3.1,4.1,4.2,6.1c25.8,46.1,66.1,66.3,117.7,65.5
		c49.7-0.7,88-22.7,113.1-65.5c29.6-50.4,23.6-127.5-34.3-172.9c-11.3-8.9-23.9-15.3-37.7-19.3c-27.9-8.2-55.8-16.4-83.8-24.4
		c-51.2-14.6-92-43.2-121.2-88.2c-44.5-68.8-41.6-178.7,37.5-248.3c93.5-82.2,244.9-53.6,300.5,58.1c1.9,3.9,3.6,7.9,5.9,13
		c-29.9,12.6-59,24.9-89.1,37.5c-1.7-3.4-3.2-6.3-4.6-9.2c-14.2-29.1-37.9-44.5-69.7-47.2c-11.7-1-23.9-1.1-35.3,1.1
		c-45.3,8.8-78.1,52.3-75.3,98.5c0.5,8.1,1.4,16.3,3.3,24.1c5.8,24.5,20.3,42.6,42.8,53.8c8.7,4.4,18.1,7.7,27.4,10.5
		c29.1,8.8,58.4,17.3,87.7,25.7c84.9,24.4,147.9,97.8,159.2,185.7c8.1,63-3.4,121.6-42.1,173c-45,59.7-105.4,91.2-180.4,92.2
		c-92.9,1.2-160.7-42.2-208.5-119.9C7059.3,958.2,7058.9,957.2,7058,955.1z"/>
	<path class="st0" d="M6729.4,327.3c0-5.9,0-9.9,0-14c0-61,0.2-121.9-0.2-182.9c-0.1-8.5,2.8-12.5,10.2-16
		c26.3-12.4,52.3-25.5,78.5-38.3c2.9-1.4,6-2.6,10.3-4.4c0,85.5,0,169.7,0,255.1c15.2,0.8,29.7,0.3,44.1,0.4c14.2,0.1,28.5,0,42.7,0
		c14.5,0,29,0,44.3,0c0,33,0,65.3,0,98.8c-43.6,0-86.7,0-130.7,0c0,213.2,0,425.1,0,636.7c-7.7,2.6-82.7,3.3-98.8,1.1
		c0-212,0-424.2,0-637.5c-44.7,0-88.1,0-131.3,0c-2.5-8.7-2.9-87.2-0.6-99C6641,327.3,6684.5,327.3,6729.4,327.3z"/>
	<path class="st0" d="M5718.4,314c-14.7,28.9-29.2,57.2-43.8,85.9c-9.5-1.6-18.7-3.5-28-4.6c-127.3-15.1-200.7,76.3-212.2,157.4
		c-1.6,11.4-2.3,22.9-2.3,34.4c-0.1,150.3-0.1,300.7-0.1,451c0,4.3,0,8.7,0,13.8c-32.7,0-64.7,0-96.6,0c-2.4-8.1-2.7-724,0-734.9
		c27,21.6,53.5,42.9,81,64.9c52.8-55.3,117.6-83.5,193.3-86.7C5650.6,293.5,5697.8,302,5718.4,314z"/>
	<path class="st0" d="M8069.6,668.6c0.3-54,41-93.9,95.3-93.5c52.1,0.4,92.9,42,92.5,94.5c-0.3,52.7-42,94-94.6,93.7
		C8109.8,763.1,8069.3,721.9,8069.6,668.6z"/>
</g>
</svg>
