<?xml version="1.0" encoding="UTF-8" standalone="no"?>
<!-- Created with Inkscape (http://www.inkscape.org/) -->
<svg
   xmlns:svg="http://www.w3.org/2000/svg"
   xmlns="http://www.w3.org/2000/svg"
   version="1.0"
   width="292.78049"
   height="241.685"
   id="svg2">
  <defs
     id="defs6" />
  <rect
     width="263.78049"
     height="212.685"
     rx="13"
     ry="13"
     x="14.5"
     y="14.5"
     style="fill:none;stroke:#f1072c;stroke-width:10"
     id="rect2160" />
  <path
     d="M 246.30808,212.60504 L 117.41464,212.52873 C 103.60302,212.52055 106.34795,151.37568 92.262693,151.37568 L 87.017504,151.37556 C 82.745254,151.37556 79.305853,147.93616 79.305853,143.6639 L 79.305853,119.0739 C 79.305853,114.80165 82.745254,111.36225 87.017504,111.36225 C 91.289754,111.36225 91.033602,111.36225 95.305853,111.36225 C 99.578104,111.36225 103.0175,107.92285 103.0175,103.65059 L 103.0175,81.675842 C 103.0175,77.403582 99.578104,73.964182 95.305853,73.964182 L 73.886975,73.977183 L 73.886975,202.60504 C 73.886975,208.14504 69.426975,212.60504 63.886975,212.60504 C 58.346975,212.60504 44.762626,212.60504 39.222626,212.60504 C 33.682626,212.60504 29.222626,208.14504 29.222626,202.60504 L 29.222626,39.079963 C 29.222626,33.539963 33.682626,29.079963 39.222626,29.079963 C 44.762626,29.079963 117.99359,29.079963 127.69903,29.079963 C 137.40447,29.079963 145.21787,36.893365 145.21787,46.598802 L 145.21787,111.52902 C 145.21787,121.23445 137.40447,128.8517 127.69903,128.8517 L 123.72014,128.8517 L 123.72014,135.33474 C 149.32214,135.33474 142.05699,168.57081 153.32919,168.57081 L 212.66512,168.57081 C 216.93737,168.57081 220.37677,165.13141 220.37677,160.85915 L 220.37677,150.65302 C 220.37677,146.38076 216.93737,142.94136 212.66512,142.94136 C 208.39287,142.94136 194.25577,142.94136 180.89617,142.94136 C 167.53657,142.94136 156.78137,132.18616 156.78137,118.82656 C 156.78137,105.46696 156.78137,55.886119 156.78137,46.329742 C 156.78137,36.773365 164.47477,29.079963 174.03115,29.079963 C 183.58753,29.079963 248.01786,29.079963 253.55786,29.079963 C 259.09786,29.079963 263.55786,33.539963 263.55786,39.079963 C 263.55786,44.619963 263.55786,57.77037 263.55786,63.31037 C 263.55786,68.85037 259.09786,73.31037 253.55786,73.31037 C 248.01786,73.31037 210.9982,73.31037 206.72595,73.31037 C 202.4537,73.31037 199.0143,76.74977 199.0143,81.02203 L 199.0143,91.22816 C 199.0143,95.500417 202.4537,98.939817 206.72595,98.939817 C 210.9982,98.939817 226.08346,98.939817 239.44306,98.939817 C 252.80266,98.939817 263.55786,109.69502 263.55786,123.05462 C 263.55786,136.41422 263.55786,185.79888 263.55786,195.35526 C 263.55786,204.91164 255.86446,212.60504 246.30808,212.60504 z "
     style="fill:#f1072c;stroke:none"
     id="path4206" />
</svg>
