<?xml version="1.0" encoding="UTF-8" standalone="no"?>
<!-- Created with Inkscape (http://www.inkscape.org/) -->

<svg
   width="186.12968mm"
   height="38.785831mm"
   viewBox="0 0 186.12968 38.785831"
   version="1.1"
   id="svg46066"
   inkscape:version="1.2-dev (9ee32be, 2021-06-19)"
   sodipodi:docname="ca_elfaro.svg"
   xmlns:inkscape="http://www.inkscape.org/namespaces/inkscape"
   xmlns:sodipodi="http://sodipodi.sourceforge.net/DTD/sodipodi-0.dtd"
   xmlns="http://www.w3.org/2000/svg"
   xmlns:svg="http://www.w3.org/2000/svg">
  <sodipodi:namedview
     id="namedview46068"
     pagecolor="#ffffff"
     bordercolor="#666666"
     borderopacity="1.0"
     inkscape:pageshadow="2"
     inkscape:pageopacity="0.0"
     inkscape:pagecheckerboard="0"
     inkscape:document-units="mm"
     showgrid="false"
     fit-margin-top="0"
     fit-margin-left="0"
     fit-margin-right="0"
     fit-margin-bottom="0"
     inkscape:zoom="0.51491302"
     inkscape:cx="352.48672"
     inkscape:cy="73.798872"
     inkscape:window-width="1316"
     inkscape:window-height="800"
     inkscape:window-x="0"
     inkscape:window-y="25"
     inkscape:window-maximized="0"
     inkscape:current-layer="layer1" />
  <defs
     id="defs46063" />
  <g
     inkscape:label="Layer 1"
     inkscape:groupmode="layer"
     id="layer1"
     transform="translate(-12.015608,-129.10708)">
    <path
       d="m 50.783733,147.75071 c -0.179917,-4.54483 -2.005894,-9.34543 -5.662083,-12.96352 -3.509434,-3.50943 -8.357658,-5.68008 -13.712825,-5.68008 v 6.67244 c 3.512608,0 6.6929,1.42381 8.994775,3.72569 2.020005,2.04682 3.531305,4.92337 3.700991,8.24547 h -0.01305 c 0.617008,6.82519 -5.373159,13.6264 -12.682714,13.47012 v 6.67208 c 4.872919,0 9.313686,-1.81045 12.720461,-4.77802 v 4.77802 h 6.672439 v -20.1422 z"
       style="fill:#111122;fill-opacity:1;fill-rule:nonzero;stroke:none;stroke-width:0.352778"
       id="path857-2-9-1-9-6"
       inkscape:connector-curvature="0" />
    <path
       d="m 71.019524,135.88877 c 0.114653,0.0438 0.171803,0.12559 0.171803,0.24554 v 4.34234 c 0,0.10901 -0.04868,0.18556 -0.147461,0.2293 -0.09807,0.049 -0.188383,0.0409 -0.269875,-0.0247 -0.808567,-0.62265 -1.726142,-0.9338 -2.753078,-0.9338 -1.240013,0 -2.296583,0.43709 -3.170413,1.31057 -0.873831,0.86853 -1.310923,1.9251 -1.310923,3.17111 0,1.23931 0.437092,2.29624 1.310923,3.17007 0.87383,0.87383 1.9304,1.31092 3.170413,1.31092 1.026936,0 1.944511,-0.31397 2.753078,-0.94192 0.08149,-0.066 0.171803,-0.0737 0.269875,-0.0247 0.09878,0.049 0.147461,0.12841 0.147461,0.23742 v 3.21168 c 0,0.42052 -0.13088,0.78917 -0.392994,1.10596 -0.25647,0.32209 -0.592667,0.52423 -1.007534,0.60608 -0.584905,0.11994 -1.174397,0.18026 -1.769886,0.18026 -2.441222,0 -4.52755,-0.86536 -6.258983,-2.59679 -1.731433,-1.73144 -2.59715,-3.81776 -2.59715,-6.25899 0,-2.44721 0.865717,-4.53636 2.59715,-6.26745 1.731433,-1.72614 3.817761,-2.58938 6.258983,-2.58938 1.032581,0 2.032,0.17215 2.998611,0.51646"
       style="fill:#e94160;fill-opacity:1;fill-rule:nonzero;stroke:none;stroke-width:0.352778"
       id="path861-8-1-4-2-1"
       inkscape:connector-curvature="0" />
    <path
       d="m 74.24416,129.99798 c 0,-0.17427 0.08714,-0.26176 0.262114,-0.26176 h 3.850217 c 0.174977,0 0.262114,0.0875 0.262114,0.26176 v 6.16938 c 1.54058,-0.67733 3.143602,-0.91475 4.809419,-0.71296 1.539875,0.19156 2.831747,0.66357 3.875264,1.41711 1.583619,1.15287 2.375605,2.72026 2.375605,4.70252 v 10.69164 c 0,0.17498 -0.08749,0.26211 -0.262114,0.26211 h -2.802114 c -0.360186,0 -0.668866,-0.12806 -0.925688,-0.38523 -0.25647,-0.25647 -0.384881,-0.56515 -0.384881,-0.92569 v -9.64283 c 0,-0.502 -0.188736,-0.89006 -0.565503,-1.16275 -0.617008,-0.44239 -1.542697,-0.66358 -2.777066,-0.66358 -1.240014,0 -2.165703,0.22119 -2.77742,0.66358 -0.376766,0.27269 -0.565502,0.66075 -0.565502,1.16275 v 10.69164 c 0,0.17498 -0.08714,0.26211 -0.262114,0.26211 h -3.850217 c -0.174978,0 -0.262114,-0.0871 -0.262114,-0.26211 z"
       style="fill:#e94160;fill-opacity:1;fill-rule:nonzero;stroke:none;stroke-width:0.352778"
       id="path865-0-6-0-9-5"
       inkscape:connector-curvature="0" />
    <path
       d="m 92.765346,136.19156 c 0,-0.17427 0.08714,-0.26176 0.262114,-0.26176 h 3.850216 c 0.174978,0 0.262114,0.0875 0.262114,0.26176 v 16.07397 c 0,0.17533 -0.08714,0.26246 -0.262114,0.26246 H 93.02746 c -0.174978,0 -0.262114,-0.0871 -0.262114,-0.26246 z m 4.104569,-6.21771 c 0.524228,0.52423 0.786342,1.16029 0.786342,1.90853 0,0.74824 -0.262114,1.38465 -0.786342,1.90888 -0.529872,0.52987 -1.169105,0.79481 -1.917347,0.79481 -0.748242,0 -1.384653,-0.26494 -1.90888,-0.79481 -0.529873,-0.52423 -0.794809,-1.16064 -0.794809,-1.90888 0,-0.74824 0.264936,-1.3843 0.794809,-1.90853 0.524227,-0.52987 1.160638,-0.79516 1.90888,-0.79516 0.748242,0 1.387475,0.26529 1.917347,0.79516"
       style="fill:#e94160;fill-opacity:1;fill-rule:nonzero;stroke:none;stroke-width:0.352778"
       id="path869-4-1-0-7-0"
       inkscape:connector-curvature="0" />
    <path
       d="m 112.23014,147.39921 c 0.86854,-0.87383 1.30246,-1.93076 1.30246,-3.17007 0,-1.24036 -0.43392,-2.29693 -1.30246,-3.17111 -0.87418,-0.87348 -1.93322,-1.31022 -3.17888,-1.31022 -1.23966,0 -2.29658,0.43674 -3.17041,1.31022 -0.87419,0.87418 -1.31092,1.93075 -1.31092,3.17111 0,1.23931 0.43673,2.29624 1.31092,3.17007 0.87383,0.87418 1.93075,1.31092 3.17041,1.31092 1.24566,0 2.3047,-0.43674 3.17888,-1.31092 m -7.40621,11.05182 c 0,0.17462 -0.0871,0.26211 -0.26212,0.26211 h -3.85022 c -0.17497,0 -0.26246,-0.0875 -0.26246,-0.26211 v -22.25957 c 0,-0.17428 0.0875,-0.26177 0.26246,-0.26177 h 0.55704 c 1.1303,0 2.05317,0.44239 2.7686,1.32715 1.37125,-1.25624 3.04236,-1.88453 5.01403,-1.88453 2.44687,0 4.53355,0.86324 6.25898,2.58938 1.73179,1.73109 2.59751,3.82024 2.59751,6.26745 0,2.44123 -0.86572,4.52755 -2.59751,6.25899 -1.73108,1.73143 -3.8174,2.59679 -6.25898,2.59679 -1.58926,0 -2.99861,-0.42051 -4.22733,-1.26153 z"
       style="fill:#e94160;fill-opacity:1;fill-rule:nonzero;stroke:none;stroke-width:0.352778"
       id="path873-5-1-2-3-6"
       inkscape:connector-curvature="0" />
    <path
       d="m 124.78134,141.05817 c -0.87383,0.86854 -1.31092,1.9251 -1.31092,3.17076 0,1.23966 0.43709,2.29659 1.31092,3.17042 0.87418,0.87383 1.93075,1.31057 3.17041,1.31057 1.24002,0 2.29694,-0.43674 3.17077,-1.31057 0.87383,-0.87383 1.31057,-1.93076 1.31057,-3.17042 0,-1.24566 -0.43674,-2.30222 -1.31057,-3.17076 -0.87383,-0.87383 -1.93075,-1.31057 -3.17077,-1.31057 -1.23966,0 -2.29623,0.43674 -3.17041,1.31057 m 10.95375,-5.12833 h 0.55704 c 0.17462,0 0.26211,0.0875 0.26211,0.26176 v 16.07432 c 0,0.17497 -0.0875,0.26211 -0.26211,0.26211 h -0.55704 c -1.13065,0 -2.0514,-0.44238 -2.76084,-1.32715 -1.37654,1.25624 -3.05082,1.88419 -5.0225,1.88419 -2.44122,0 -4.52755,-0.86537 -6.25898,-2.59715 -1.73143,-1.73144 -2.5968,-3.81776 -2.5968,-6.25899 0,-2.44686 0.86537,-4.53601 2.5968,-6.26709 1.73143,-1.72615 3.81776,-2.58939 6.25898,-2.58939 1.97168,0 3.64596,0.62829 5.0225,1.88454 0.70944,-0.88477 1.63019,-1.32715 2.76084,-1.32715"
       style="fill:#e94160;fill-opacity:1;fill-rule:nonzero;stroke:none;stroke-width:0.352778"
       id="path877-3-5-2-8-5"
       inkscape:connector-curvature="0" />
    <path
       d="m 141.66983,148.24323 c 1.15782,0.38805 2.31564,0.54892 3.47381,0.4833 0.6223,-0.0328 1.1056,-0.14464 1.44991,-0.33584 0.18027,-0.0984 0.29775,-0.21026 0.35243,-0.33585 0.10372,-0.24588 0.10936,-0.4833 0.0162,-0.71296 -0.10372,-0.26211 -0.30586,-0.4639 -0.60643,-0.60607 l -4.2679,-1.98261 c -1.60585,-0.74825 -2.53471,-1.96074 -2.78589,-3.6375 -0.12559,-0.83573 -0.0272,-1.64958 0.29492,-2.44157 0.3168,-0.78634 0.81139,-1.44745 1.48308,-1.98226 1.00506,-0.79763 2.37314,-1.23472 4.10457,-1.31127 0.8576,-0.0377 1.76142,0 2.71145,0.115 0.83608,0.0928 1.61431,0.25365 2.33539,0.48295 0.12523,0.0332 0.18803,0.11536 0.18803,0.24624 v 4.09611 c 0,0.0984 -0.0438,0.17215 -0.13088,0.22119 -0.0822,0.0547 -0.16687,0.0572 -0.254,0.008 -0.1584,-0.0875 -0.31962,-0.16651 -0.48331,-0.23742 -0.60642,-0.25647 -1.32468,-0.43427 -2.15512,-0.53269 -0.74824,-0.0871 -1.42275,-0.11712 -2.02318,-0.09 -0.79763,0.0328 -1.3275,0.15557 -1.58961,0.36865 -0.13653,0.0981 -0.20179,0.23495 -0.19615,0.40958 0.005,0.21272 0.11712,0.36865 0.33585,0.46707 l 4.2679,1.99073 c 1.39312,0.65017 2.33504,1.57586 2.82646,2.77742 0.54081,1.33244 0.52176,2.67899 -0.0572,4.03895 -0.44803,1.07033 -1.20721,1.89795 -2.27754,2.48215 -0.92851,0.5027 -2.02635,0.78916 -3.29353,0.86042 -1.39241,0.0819 -2.80987,-0.0684 -4.25203,-0.45085 -0.3877,-0.10372 -0.70167,-0.3115 -0.94227,-0.6223 -0.2346,-0.3115 -0.35207,-0.66922 -0.35207,-1.07315 v -3.11362 c 0,-0.0981 0.0437,-0.17462 0.13088,-0.2293 0.0875,-0.0494 0.17498,-0.0494 0.26247,0 0.42051,0.25153 0.89817,0.46708 1.43368,0.64735"
       style="fill:#e94160;fill-opacity:1;fill-rule:nonzero;stroke:none;stroke-width:0.352778"
       id="path881-6-0-8-5-3"
       inkscape:connector-curvature="0" />
    <path
       d="m 155.68069,148.24323 c 1.15781,0.38805 2.31563,0.54892 3.4738,0.4833 0.6223,-0.0328 1.1056,-0.14464 1.44992,-0.33584 0.18026,-0.0984 0.29774,-0.21026 0.35242,-0.33585 0.10372,-0.24588 0.10936,-0.4833 0.0162,-0.71296 -0.10372,-0.26211 -0.30586,-0.4639 -0.60643,-0.60607 l -4.2679,-1.98261 c -1.60585,-0.74825 -2.53471,-1.96074 -2.78589,-3.6375 -0.12559,-0.83573 -0.0272,-1.64958 0.29492,-2.44157 0.3168,-0.78634 0.81139,-1.44745 1.48308,-1.98226 1.00507,-0.79763 2.37314,-1.23472 4.10457,-1.31127 0.8576,-0.0377 1.76142,0 2.71145,0.115 0.83608,0.0928 1.61431,0.25365 2.33539,0.48295 0.12524,0.0332 0.18803,0.11536 0.18803,0.24624 v 4.09611 c 0,0.0984 -0.0437,0.17215 -0.13088,0.22119 -0.0822,0.0547 -0.16686,0.0572 -0.254,0.008 -0.1584,-0.0875 -0.31962,-0.16651 -0.48331,-0.23742 -0.60642,-0.25647 -1.32468,-0.43427 -2.15512,-0.53269 -0.74824,-0.0871 -1.42275,-0.11712 -2.02318,-0.09 -0.79763,0.0328 -1.3275,0.15557 -1.58961,0.36865 -0.13653,0.0981 -0.20179,0.23495 -0.19615,0.40958 0.005,0.21272 0.11713,0.36865 0.33585,0.46707 l 4.2679,1.99073 c 1.39312,0.65017 2.33504,1.57586 2.82646,2.77742 0.54081,1.33244 0.52176,2.67899 -0.0572,4.03895 -0.44803,1.07033 -1.20721,1.89795 -2.27753,2.48215 -0.92852,0.5027 -2.02636,0.78916 -3.29354,0.86042 -1.39241,0.0819 -2.80987,-0.0684 -4.25203,-0.45085 -0.3877,-0.10372 -0.70167,-0.3115 -0.94227,-0.6223 -0.2346,-0.3115 -0.35207,-0.66922 -0.35207,-1.07315 v -3.11362 c 0,-0.0981 0.0437,-0.17462 0.13088,-0.2293 0.0875,-0.0494 0.17498,-0.0494 0.26247,0 0.42051,0.25153 0.89817,0.46708 1.43369,0.64735"
       style="fill:#e94160;fill-opacity:1;fill-rule:nonzero;stroke:none;stroke-width:0.352778"
       id="path885-2-3-5-6-1"
       inkscape:connector-curvature="0" />
    <path
       d="m 167.93354,136.19156 c 0,-0.17427 0.0871,-0.26176 0.26211,-0.26176 h 3.85022 c 0.17498,0 0.26211,0.0875 0.26211,0.26176 v 16.07397 c 0,0.17533 -0.0871,0.26246 -0.26211,0.26246 h -3.85022 c -0.17497,0 -0.26211,-0.0871 -0.26211,-0.26246 z m 4.10457,-6.21771 c 0.52423,0.52423 0.78634,1.16029 0.78634,1.90853 0,0.74824 -0.26211,1.38465 -0.78634,1.90888 -0.52987,0.52987 -1.16911,0.79481 -1.91735,0.79481 -0.74824,0 -1.38465,-0.26494 -1.90888,-0.79481 -0.52987,-0.52423 -0.79481,-1.16064 -0.79481,-1.90888 0,-0.74824 0.26494,-1.3843 0.79481,-1.90853 0.52423,-0.52987 1.16064,-0.79516 1.90888,-0.79516 0.74824,0 1.38748,0.26529 1.91735,0.79516"
       style="fill:#e94160;fill-opacity:1;fill-rule:nonzero;stroke:none;stroke-width:0.352778"
       id="path889-2-0-0-7-0"
       inkscape:connector-curvature="0" />
    <path
       d="m 177.36893,148.24323 c 1.15782,0.38805 2.31564,0.54892 3.47381,0.4833 0.6223,-0.0328 1.1056,-0.14464 1.44991,-0.33584 0.18027,-0.0984 0.29775,-0.21026 0.35243,-0.33585 0.10372,-0.24588 0.10936,-0.4833 0.0162,-0.71296 -0.10372,-0.26211 -0.30586,-0.4639 -0.60643,-0.60607 l -4.2679,-1.98261 c -1.60585,-0.74825 -2.53471,-1.96074 -2.78589,-3.6375 -0.12559,-0.83573 -0.0272,-1.64958 0.29492,-2.44157 0.3168,-0.78634 0.81139,-1.44745 1.48308,-1.98226 1.00506,-0.79763 2.37314,-1.23472 4.10457,-1.31127 0.8576,-0.0377 1.76142,0 2.71145,0.115 0.83608,0.0928 1.61431,0.25365 2.33539,0.48295 0.12523,0.0332 0.18803,0.11536 0.18803,0.24624 v 4.09611 c 0,0.0984 -0.0437,0.17215 -0.13088,0.22119 -0.0822,0.0547 -0.16687,0.0572 -0.254,0.008 -0.1584,-0.0875 -0.31962,-0.16651 -0.48331,-0.23742 -0.60642,-0.25647 -1.32468,-0.43427 -2.15512,-0.53269 -0.74824,-0.0871 -1.42275,-0.11712 -2.02318,-0.09 -0.79763,0.0328 -1.3275,0.15557 -1.58961,0.36865 -0.13653,0.0981 -0.20179,0.23495 -0.19615,0.40958 0.005,0.21272 0.11712,0.36865 0.33585,0.46707 l 4.2679,1.99073 c 1.39312,0.65017 2.33504,1.57586 2.82646,2.77742 0.5408,1.33244 0.52175,2.67899 -0.0572,4.03895 -0.44803,1.07033 -1.20721,1.89795 -2.27754,2.48215 -0.92851,0.5027 -2.02635,0.78916 -3.29353,0.86042 -1.39241,0.0819 -2.80987,-0.0684 -4.25203,-0.45085 -0.3877,-0.10372 -0.70168,-0.3115 -0.94227,-0.6223 -0.2346,-0.3115 -0.35207,-0.66922 -0.35207,-1.07315 v -3.11362 c 0,-0.0981 0.0437,-0.17462 0.13088,-0.2293 0.0875,-0.0494 0.17498,-0.0494 0.26247,0 0.42051,0.25153 0.89817,0.46708 1.43368,0.64735"
       style="fill:#e94160;fill-opacity:1;fill-rule:nonzero;stroke:none;stroke-width:0.352778"
       id="path893-7-3-7-3-1"
       inkscape:connector-curvature="0" />
    <path
       d="m 193.83551,135.92973 h 3.93241 c 0.17498,0 0.26247,0.0875 0.26247,0.26176 v 2.80247 c 0,0.36018 -0.12877,0.66886 -0.38524,0.92569 -0.25682,0.25647 -0.56832,0.38452 -0.93415,0.38452 h -2.87549 v 6.57049 c 0,0.60643 0.1531,1.04881 0.45896,1.3275 0.36583,0.33867 0.94474,0.508 1.73708,0.508 0.68227,0 1.20932,-0.12841 1.5808,-0.38488 0.0875,-0.0603 0.17744,-0.066 0.27058,-0.0166 0.0981,0.049 0.14746,0.12559 0.14746,0.22931 v 4.09645 c 0,0.14182 -0.0684,0.22649 -0.20497,0.25365 -0.57326,0.13123 -1.17157,0.19685 -1.79387,0.19685 -1.91735,0 -3.48227,-0.55704 -4.69477,-1.67111 -1.2506,-1.14688 -1.87572,-2.65994 -1.87572,-4.53919 v -15.26222 c 0,-0.17498 0.0871,-0.26247 0.26212,-0.26247 h 0.55703 c 0.9772,0 1.81575,0.34713 2.51496,1.04034 0.69356,0.69921 1.04034,1.53776 1.04034,2.51531 z"
       style="fill:#e94160;fill-opacity:1;fill-rule:nonzero;stroke:none;stroke-width:0.352778"
       id="path897-5-3-7-9-9"
       inkscape:connector-curvature="0" />
    <path
       d="m 31.40886,135.77952 v -6.67244 c -10.710333,0 -19.393252,8.68256 -19.393252,19.3929 0,10.71033 8.682919,19.3929 19.393252,19.3929 v -6.67209 c -7.025569,0 -12.720813,-5.69524 -12.720813,-12.72081 0,-7.02557 5.695244,-12.72046 12.720813,-12.72046"
       style="fill:#e94160;fill-opacity:1;fill-rule:nonzero;stroke:none;stroke-width:0.352778"
       id="path901-1-7-3-1-5"
       inkscape:connector-curvature="0" />
    <path
       d="m 115.8544,159.68751 c -0.93062,0 -1.84855,0.37748 -1.84855,1.3455 0,1.01847 1.01847,1.19486 1.99954,1.2827 1.67217,0.21413 3.10551,0.77964 3.10551,2.51495 0,1.77306 -1.54623,2.66594 -3.2692,2.66594 -1.74766,0 -3.01801,-0.99342 -3.18135,-2.61549 l 1.2827,-0.0254 c 0.0879,0.89323 0.90523,1.38324 1.91135,1.38324 1.08127,0 1.97415,-0.43991 1.97415,-1.42099 0,-0.95567 -0.95568,-1.13136 -1.97415,-1.2319 -1.73531,-0.17639 -3.13125,-0.70414 -3.13125,-2.52765 0,-1.69757 1.53423,-2.6155 3.1563,-2.6155 1.3582,0 2.76648,0.75424 2.99297,2.36397 h -1.25765 c -0.17604,-0.77964 -1.00577,-1.11937 -1.76037,-1.11937"
       style="fill:#ffffff;fill-opacity:1;fill-rule:nonzero;stroke:none;stroke-width:0.352778"
       id="path909-8-6-1-2-7"
       inkscape:connector-curvature="0" />
    <path
       d="m 115.8544,159.68751 c -0.93062,0 -1.84855,0.37748 -1.84855,1.3455 0,1.01847 1.01847,1.19486 1.99954,1.2827 1.67217,0.21413 3.10551,0.77964 3.10551,2.51495 0,1.77306 -1.54623,2.66594 -3.2692,2.66594 -1.74766,0 -3.01801,-0.99342 -3.18135,-2.61549 l 1.2827,-0.0254 c 0.0879,0.89323 0.90523,1.38324 1.91135,1.38324 1.08127,0 1.97415,-0.43991 1.97415,-1.42099 0,-0.95567 -0.95568,-1.13136 -1.97415,-1.2319 -1.73531,-0.17639 -3.13125,-0.70414 -3.13125,-2.52765 0,-1.69757 1.53423,-2.6155 3.1563,-2.6155 1.3582,0 2.76648,0.75424 2.99297,2.36397 h -1.25765 c -0.17604,-0.77964 -1.00577,-1.11937 -1.76037,-1.11937 z"
       style="fill:#ffffff;fill-opacity:1;stroke:none;stroke-width:0.200025;stroke-linecap:butt;stroke-linejoin:miter;stroke-miterlimit:10;stroke-dasharray:none;stroke-opacity:1"
       id="path913-6-5-0-6-6"
       inkscape:connector-curvature="0" />
    <path
       d="m 122.50786,165.34639 1.3582,-4.77838 h 1.09361 l 1.37089,4.77838 0.80469,-2.91748 0.57855,-1.8609 h 1.29505 l -2.22567,6.85306 h -0.94333 l -0.82973,-2.66594 -0.59091,-2.04964 -0.59125,2.04964 -0.84244,2.66594 h -0.93027 l -2.22603,-6.85306 h 1.2954 l 0.56586,1.8609 z"
       style="fill:#ffffff;fill-opacity:1;fill-rule:nonzero;stroke:none;stroke-width:0.352778"
       id="path917-0-1-8-5-8"
       inkscape:connector-curvature="0" />
    <path
       d="m 122.50786,165.34639 1.3582,-4.77838 h 1.09361 l 1.37089,4.77838 0.80469,-2.91748 0.57855,-1.8609 h 1.29505 l -2.22567,6.85306 h -0.94333 l -0.82973,-2.66594 -0.59091,-2.04964 -0.59125,2.04964 -0.84244,2.66594 h -0.93027 l -2.22603,-6.85306 h 1.2954 l 0.56586,1.8609 z"
       style="fill:#ffffff;fill-opacity:1;stroke:none;stroke-width:0.200025;stroke-linecap:butt;stroke-linejoin:miter;stroke-miterlimit:10;stroke-dasharray:none;stroke-opacity:1"
       id="path921-5-1-3-1-5"
       inkscape:connector-curvature="0" />
    <path
       d="m 130.35618,167.37073 h 1.23225 v -6.87846 h -1.23225 z m 0.62865,-9.25509 c 0.37712,0 0.75459,0.22649 0.75459,0.7045 0,0.47766 -0.37747,0.71649 -0.76694,0.71649 -0.37712,0 -0.76729,-0.23883 -0.76729,-0.71649 0,-0.46531 0.39017,-0.7045 0.77964,-0.7045"
       style="fill:#ffffff;fill-opacity:1;fill-rule:nonzero;stroke:none;stroke-width:0.352777"
       id="path923-6-3-8-4-4"
       inkscape:connector-curvature="0"
       inkscape:export-filename="/Users/vash/OneDrive/Documents/CA/Design/Logo/logo_80.png"
       inkscape:export-xdpi="48.035324"
       inkscape:export-ydpi="48.035324" />
    <path
       d="m 130.35618,167.37073 h 1.23225 v -6.87846 h -1.23225 z m 0.62865,-9.25509 c 0.37712,0 0.75459,0.22649 0.75459,0.7045 0,0.47766 -0.37747,0.71649 -0.76694,0.71649 -0.37712,0 -0.76729,-0.23883 -0.76729,-0.71649 0,-0.46531 0.39017,-0.7045 0.77964,-0.7045 z"
       style="fill:#ffffff;fill-opacity:1;stroke:none;stroke-width:0.200025;stroke-linecap:butt;stroke-linejoin:miter;stroke-miterlimit:10;stroke-dasharray:none;stroke-opacity:1"
       id="path925-2-4-4-7-7"
       inkscape:connector-curvature="0"
       inkscape:export-filename="/Users/vash/OneDrive/Documents/CA/Design/Logo/logo_80.png"
       inkscape:export-xdpi="48.035324"
       inkscape:export-ydpi="48.035324" />
    <path
       d="m 136.76993,160.56805 v 0.98037 h -1.49613 v 3.8354 c 0,0.80504 0.40216,0.99342 1.01847,0.99342 0.15063,0 0.32667,-0.0123 0.5154,-0.025 v 1.03082 c -0.20108,0.0127 -0.38981,0.0257 -0.56585,0.0257 -1.3328,0 -2.20028,-0.45297 -2.20028,-2.03764 v -3.8227 h -1.01882 v -0.98037 h 1.01882 v -1.27036 l 1.23226,-0.23847 v 1.50883 z"
       style="fill:#ffffff;fill-opacity:1;fill-rule:nonzero;stroke:none;stroke-width:0.352778"
       id="path929-5-6-2-3-9"
       inkscape:connector-curvature="0" />
    <path
       d="m 136.76993,160.56805 v 0.98037 h -1.49613 v 3.8354 c 0,0.80504 0.40216,0.99342 1.01847,0.99342 0.15063,0 0.32667,-0.0123 0.5154,-0.025 v 1.03082 c -0.20108,0.0127 -0.38981,0.0257 -0.56585,0.0257 -1.3328,0 -2.20028,-0.45297 -2.20028,-2.03764 v -3.8227 h -1.01882 v -0.98037 h 1.01882 v -1.27036 l 1.23226,-0.23847 v 1.50883 z"
       style="fill:#ffffff;fill-opacity:1;stroke:none;stroke-width:0.200025;stroke-linecap:butt;stroke-linejoin:miter;stroke-miterlimit:10;stroke-dasharray:none;stroke-opacity:1"
       id="path933-4-5-0-4-6"
       inkscape:connector-curvature="0" />
    <path
       d="m 143.05791,161.38522 -3.77225,4.91702 h 3.73485 v 1.06856 h -5.19359 v -0.96802 l 3.72216,-4.79108 h -3.57117 v -1.08161 h 5.08 z"
       style="fill:#ffffff;fill-opacity:1;fill-rule:nonzero;stroke:none;stroke-width:0.352778"
       id="path937-9-6-8-0-6"
       inkscape:connector-curvature="0" />
    <path
       d="m 143.05791,161.38522 -3.77225,4.91702 h 3.73485 v 1.06856 h -5.19359 v -0.96802 l 3.72216,-4.79108 h -3.57117 v -1.08161 h 5.08 z"
       style="fill:#ffffff;fill-opacity:1;stroke:none;stroke-width:0.200025;stroke-linecap:butt;stroke-linejoin:miter;stroke-miterlimit:10;stroke-dasharray:none;stroke-opacity:1"
       id="path941-5-3-5-6-6"
       inkscape:connector-curvature="0" />
    <path
       d="m 147.57339,161.54852 c -0.99342,0 -1.99954,0.49072 -2.25107,1.69757 h 4.439 c -0.23918,-1.21955 -1.2072,-1.69757 -2.18793,-1.69757 m 3.49568,2.33927 c 0,0.13794 -0.0127,0.26388 -0.0378,0.37677 h -5.7591 c 0,1.3335 1.27,2.13818 2.28847,2.13818 0.84279,0 1.62208,-0.36477 2.0246,-1.13206 h 1.27 c -0.51541,1.48414 -1.91135,2.22568 -3.30694,2.22568 -1.74802,0 -3.50873,-1.18181 -3.50873,-3.52073 0,-2.33891 1.73531,-3.50802 3.53377,-3.50802 1.68487,0 3.34469,1.06857 3.48298,3.20605 0.0127,0.0755 0.0127,0.13828 0.0127,0.21413"
       style="fill:#ffffff;fill-opacity:1;fill-rule:nonzero;stroke:none;stroke-width:0.352778"
       id="path945-3-0-5-3-6"
       inkscape:connector-curvature="0" />
    <path
       d="m 147.57339,161.54852 c -0.99342,0 -1.99954,0.49072 -2.25107,1.69757 h 4.439 c -0.23918,-1.21955 -1.2072,-1.69757 -2.18793,-1.69757 z m 3.49568,2.33927 c 0,0.13794 -0.0127,0.26388 -0.0378,0.37677 h -5.7591 c 0,1.3335 1.27,2.13818 2.28847,2.13818 0.84279,0 1.62208,-0.36477 2.0246,-1.13206 h 1.27 c -0.51541,1.48414 -1.91135,2.22568 -3.30694,2.22568 -1.74802,0 -3.50873,-1.18181 -3.50873,-3.52073 0,-2.33891 1.73531,-3.50802 3.53377,-3.50802 1.68487,0 3.34469,1.06857 3.48298,3.20605 0.0127,0.0755 0.0127,0.13828 0.0127,0.21413 z"
       style="fill:#ffffff;fill-opacity:1;stroke:none;stroke-width:0.200025;stroke-linecap:butt;stroke-linejoin:miter;stroke-miterlimit:10;stroke-dasharray:none;stroke-opacity:1"
       id="path949-3-9-4-6-7"
       inkscape:connector-curvature="0" />
    <path
       d="m 155.82367,160.42955 c 0.26423,0 0.52811,0.0377 0.80468,0.10054 v 1.08161 c -0.21343,-0.0631 -0.42756,-0.0878 -0.62865,-0.0878 -1.14406,0 -2.09973,0.91758 -2.09973,2.16253 v 3.68441 h -1.21991 v -6.79026 h 1.21991 v 0.82973 c 0.49036,-0.6791 1.16911,-0.98072 1.9237,-0.98072"
       style="fill:#ffffff;fill-opacity:1;fill-rule:nonzero;stroke:none;stroke-width:0.352778"
       id="path953-8-7-1-4-0"
       inkscape:connector-curvature="0" />
    <path
       d="m 155.82367,160.42955 c 0.26423,0 0.52811,0.0377 0.80468,0.10054 v 1.08161 c -0.21343,-0.0631 -0.42756,-0.0878 -0.62865,-0.0878 -1.14406,0 -2.09973,0.91758 -2.09973,2.16253 v 3.68441 h -1.21991 v -6.79026 h 1.21991 v 0.82973 c 0.49036,-0.6791 1.16911,-0.98072 1.9237,-0.98072 z"
       style="fill:#ffffff;fill-opacity:1;stroke:none;stroke-width:0.200025;stroke-linecap:butt;stroke-linejoin:miter;stroke-miterlimit:10;stroke-dasharray:none;stroke-opacity:1"
       id="path957-0-8-6-3-4"
       inkscape:connector-curvature="0" />
    <path
       d="m 157.96245,158.56857 h 1.23226 v 8.80216 h -1.23226 z"
       style="fill:#ffffff;fill-opacity:1;fill-rule:nonzero;stroke:none;stroke-width:0.200025;stroke-linecap:butt;stroke-linejoin:miter;stroke-miterlimit:10;stroke-dasharray:none;stroke-opacity:1"
       id="path959-4-5-1-7-1"
       inkscape:connector-curvature="0"
       inkscape:export-filename="/Users/vash/OneDrive/Documents/CA/Design/Logo/logo_80.png"
       inkscape:export-xdpi="48.035324"
       inkscape:export-ydpi="48.035324" />
    <path
       d="m 164.46401,161.5361 c -1.49649,0 -2.40207,1.05622 -2.40207,2.40207 0,1.28199 0.89324,2.4518 2.40207,2.4518 1.13171,0 2.4518,-0.79198 2.4518,-2.42711 0,-1.62207 -1.29505,-2.42676 -2.4518,-2.42676 m 2.4518,5.8346 v -0.91758 c -0.49001,0.74154 -1.58432,1.01812 -2.42676,1.03046 -2.37666,0 -3.65936,-1.67216 -3.65936,-3.54541 0,-1.83621 1.33315,-3.48333 3.63432,-3.48333 0.84243,0 1.8609,0.20108 2.4645,1.01847 l -0.0127,-0.90523 h 1.23225 v 6.80262 z"
       style="fill:#ffffff;fill-opacity:1;fill-rule:nonzero;stroke:none;stroke-width:0.352778"
       id="path963-4-7-3-8-0"
       inkscape:connector-curvature="0" />
    <path
       d="m 164.46401,161.5361 c -1.49649,0 -2.40207,1.05622 -2.40207,2.40207 0,1.28199 0.89324,2.4518 2.40207,2.4518 1.13171,0 2.4518,-0.79198 2.4518,-2.42711 0,-1.62207 -1.29505,-2.42676 -2.4518,-2.42676 z m 2.4518,5.8346 v -0.91758 c -0.49001,0.74154 -1.58432,1.01812 -2.42676,1.03046 -2.37666,0 -3.65936,-1.67216 -3.65936,-3.54541 0,-1.83621 1.33315,-3.48333 3.63432,-3.48333 0.84243,0 1.8609,0.20108 2.4645,1.01847 l -0.0127,-0.90523 h 1.23225 v 6.80262 z"
       style="fill:#ffffff;fill-opacity:1;stroke:none;stroke-width:0.200025;stroke-linecap:butt;stroke-linejoin:miter;stroke-miterlimit:10;stroke-dasharray:none;stroke-opacity:1"
       id="path967-4-6-7-8-8"
       inkscape:connector-curvature="0" />
    <path
       d="m 173.3558,160.46743 c 2.07504,0 2.95522,1.29505 2.95522,3.2438 v 3.65936 h -1.2199 v -3.64666 c 0,-1.28235 -0.33937,-2.16253 -1.82316,-2.16253 -1.2954,0 -1.99954,0.93027 -1.99954,2.11243 v 3.69676 h -1.23225 v -6.80261 h 1.23225 v 0.84243 c 0.50306,-0.72954 1.23225,-0.94298 2.08738,-0.94298"
       style="fill:#ffffff;fill-opacity:1;fill-rule:nonzero;stroke:none;stroke-width:0.352778"
       id="path971-8-6-8-5-1"
       inkscape:connector-curvature="0" />
    <path
       d="m 173.3558,160.46743 c 2.07504,0 2.95522,1.29505 2.95522,3.2438 v 3.65936 h -1.2199 v -3.64666 c 0,-1.28235 -0.33937,-2.16253 -1.82316,-2.16253 -1.2954,0 -1.99954,0.93027 -1.99954,2.11243 v 3.69676 h -1.23225 v -6.80261 h 1.23225 v 0.84243 c 0.50306,-0.72954 1.23225,-0.94298 2.08738,-0.94298 z"
       style="fill:#ffffff;fill-opacity:1;stroke:none;stroke-width:0.200025;stroke-linecap:butt;stroke-linejoin:miter;stroke-miterlimit:10;stroke-dasharray:none;stroke-opacity:1"
       id="path975-0-7-7-5-4"
       inkscape:connector-curvature="0" />
    <path
       d="m 181.35493,161.5361 c -1.50883,0 -2.37666,1.20721 -2.37666,2.42676 0,1.39594 0.86783,2.42711 2.36396,2.42711 1.15676,0 2.30117,-0.79198 2.30117,-2.42711 0,-1.62207 -1.14441,-2.42676 -2.28847,-2.42676 m 3.52073,5.8346 h -1.23226 v -0.91758 c -0.49036,0.74154 -1.42098,1.01812 -2.27612,1.03046 -2.37631,0 -3.62126,-1.52117 -3.62126,-3.54541 0,-1.94945 1.30775,-3.48333 3.60891,-3.48333 0.84244,0 1.69757,0.18838 2.28847,0.99307 v -2.87937 h 1.23226 z"
       style="fill:#ffffff;fill-opacity:1;fill-rule:nonzero;stroke:none;stroke-width:0.352778"
       id="path979-9-4-8-3-8"
       inkscape:connector-curvature="0" />
    <path
       d="m 181.35493,161.5361 c -1.50883,0 -2.37666,1.20721 -2.37666,2.42676 0,1.39594 0.86783,2.42711 2.36396,2.42711 1.15676,0 2.30117,-0.79198 2.30117,-2.42711 0,-1.62207 -1.14441,-2.42676 -2.28847,-2.42676 z m 3.52073,5.8346 h -1.23226 v -0.91758 c -0.49036,0.74154 -1.42098,1.01812 -2.27612,1.03046 -2.37631,0 -3.62126,-1.52117 -3.62126,-3.54541 0,-1.94945 1.30775,-3.48333 3.60891,-3.48333 0.84244,0 1.69757,0.18838 2.28847,0.99307 v -2.87937 h 1.23226 z"
       style="fill:#ffffff;fill-opacity:1;stroke:none;stroke-width:0.200025;stroke-linecap:butt;stroke-linejoin:miter;stroke-miterlimit:10;stroke-dasharray:none;stroke-opacity:1"
       id="path983-7-0-2-5-8"
       inkscape:connector-curvature="0" />
    <path
       d="m 198.14529,167.37041 h -9.03185 v -9.03185 h 9.03185 z"
       style="fill:#e94160;fill-opacity:1;fill-rule:nonzero;stroke:none;stroke-width:0.352777"
       id="path985-5-8-5-9-4"
       inkscape:connector-curvature="0"
       inkscape:export-filename="/Users/vash/OneDrive/Documents/CA/Design/Logo/logo_80.png"
       inkscape:export-xdpi="48.035324"
       inkscape:export-ydpi="48.035324" />
    <path
       d="m 194.41015,162.07406 v -1.99814 h -1.56105 v 1.99814 h -1.99848 v 1.56104 h 1.99848 v 1.99848 h 1.56105 v -1.99848 h 1.99813 v -1.56104 z"
       style="fill:#ffffff;fill-opacity:1;fill-rule:nonzero;stroke:none;stroke-width:0.352778"
       id="path989-2-4-7-4-5"
       inkscape:connector-curvature="0" />
    <path
       d="m 37.849489,146.75013 h -4.420658 v -4.42066 h -3.499909 v 4.42066 h -4.420658 v 3.50026 h 4.420658 v 4.42031 h 3.499909 v -4.42031 h 4.420658 z"
       style="fill:#e94160;fill-opacity:1;fill-rule:nonzero;stroke:none;stroke-width:0.352778"
       id="path905-0-1-6-7-7"
       inkscape:connector-curvature="0" />
  </g>
</svg>
