<?xml version="1.0" encoding="UTF-8" standalone="no"?>
<svg
   inkscape:version="1.2-dev (9ee32be, 2021-06-19)"
   sodipodi:docname="noun_pcb_1951361_wqxgqm.svg"
   id="svg879"
   xml:space="preserve"
   viewBox="0 0 62 46"
   y="0px"
   x="0px"
   version="1.1"
   width="62"
   height="46"
   xmlns:inkscape="http://www.inkscape.org/namespaces/inkscape"
   xmlns:sodipodi="http://sodipodi.sourceforge.net/DTD/sodipodi-0.dtd"
   xmlns="http://www.w3.org/2000/svg"
   xmlns:svg="http://www.w3.org/2000/svg"
   xmlns:rdf="http://www.w3.org/1999/02/22-rdf-syntax-ns#"
   xmlns:cc="http://creativecommons.org/ns#"
   xmlns:dc="http://purl.org/dc/elements/1.1/"><metadata
     id="metadata885"><rdf:RDF><cc:Work
         rdf:about=""><dc:format>image/svg+xml</dc:format><dc:type
           rdf:resource="http://purl.org/dc/dcmitype/StillImage" /></cc:Work></rdf:RDF></metadata><defs
     id="defs883" /><sodipodi:namedview
     inkscape:current-layer="svg879"
     inkscape:window-maximized="0"
     inkscape:window-y="25"
     inkscape:window-x="0"
     inkscape:cy="39.334566"
     inkscape:cx="16.340111"
     inkscape:zoom="6.7625"
     showgrid="false"
     id="namedview881"
     inkscape:window-height="676"
     inkscape:window-width="1328"
     inkscape:pageshadow="2"
     inkscape:pageopacity="0"
     guidetolerance="10"
     gridtolerance="10"
     objecttolerance="10"
     borderopacity="1"
     inkscape:document-rotation="0"
     bordercolor="#666666"
     pagecolor="#ffffff"
     inkscape:pagecheckerboard="0"
     fit-margin-top="0"
     fit-margin-left="0"
     fit-margin-right="0"
     fit-margin-bottom="0" /><g
     id="g873"
     transform="translate(-1,-9)"><path
       id="path833"
       d="M 1,9 V 55 H 63 V 9 Z m 4,8 H 3 v -2 h 2 z m 0,2 v 2 H 3 v -2 z m 0,-8 v 2 H 3 V 11 Z M 5,49 H 3 V 47 H 5 Z M 5,45 H 3 v -2 h 2 z m -2,6 h 2 v 2 H 3 Z m 4,2 V 41 H 3 V 23 H 7 V 11 h 54 v 2 h -7 c -2.785,0 -5.189,1.639 -6.315,4 H 46 c -2.757,0 -5,2.243 -5,5 v 12 c 0,2.757 2.243,5 5,5 h 1 v 2.343 L 54.511,51 H 61 v 2 z M 61,36 h -7 v 8 h 7 v 5 H 55.489 L 49,40.657 V 20 c 0,-2.757 2.243,-5 5,-5 h 7 v 11 z m 0,2 v 4 H 56 V 38 Z M 47,20 v 1 h -2 v 2 h 2 v 10 h -2 v 2 h 2 v 2 h -1 c -1.654,0 -3,-1.346 -3,-3 V 22 c 0,-1.654 1.346,-3 3,-3 h 1.08 C 47.033,19.328 47,19.66 47,20 Z" /><path
       id="path835"
       d="m 31,21 h -2 v -4 h -2 v 4 h -2 v -4 h -2 v 4 h -2 v -4 h -2 v 4 h -2 v -4 h -2 v 4 h -2 v 4 H 9 v 2 h 4 v 2 H 9 v 2 h 4 v 2 H 9 v 2 h 4 v 2 H 9 v 2 h 4 v 4 h 2 v 4 h 2 v -4 h 2 v 4 h 2 v -4 h 2 v 4 h 2 v -4 h 2 v 4 h 2 v -4 h 2 v -4 h 4 v -2 h -4 v -2 h 4 v -2 h -4 v -2 h 4 v -2 h -4 v -2 h 4 V 25 H 31 Z M 29,41 H 15 V 23 h 14 z" /><path
       id="path837"
       d="M 27,25 H 17 V 39 H 27 Z M 25,37 H 19 V 27 h 6 z" /><rect
       id="rect839"
       height="2"
       width="2"
       y="25"
       x="5" /><rect
       id="rect841"
       height="2"
       width="2"
       y="29"
       x="5" /><rect
       id="rect843"
       height="2"
       width="2"
       y="33"
       x="5" /><rect
       id="rect845"
       height="2"
       width="2"
       y="37"
       x="5" /><rect
       id="rect847"
       height="2"
       width="2"
       y="25"
       x="37" /><rect
       id="rect849"
       height="2"
       width="2"
       y="29"
       x="37" /><rect
       id="rect851"
       height="2"
       width="2"
       y="33"
       x="37" /><rect
       id="rect853"
       height="2"
       width="2"
       y="37"
       x="37" /><rect
       id="rect855"
       height="2"
       width="2"
       y="13"
       x="15" /><rect
       id="rect857"
       height="2"
       width="2"
       y="13"
       x="19" /><rect
       id="rect859"
       height="2"
       width="2"
       y="13"
       x="23" /><rect
       id="rect861"
       height="2"
       width="2"
       y="13"
       x="27" /><rect
       id="rect863"
       height="2"
       width="2"
       y="49"
       x="15" /><rect
       id="rect865"
       height="2"
       width="2"
       y="49"
       x="19" /><rect
       id="rect867"
       height="2"
       width="2"
       y="49"
       x="23" /><rect
       id="rect869"
       height="2"
       width="2"
       y="49"
       x="27" /><path
       id="path871"
       d="m 56,21 c -2.757,0 -5,2.243 -5,5 0,2.757 2.243,5 5,5 2.757,0 5,-2.243 5,-5 0,-2.757 -2.243,-5 -5,-5 z m 0,8 c -1.654,0 -3,-1.346 -3,-3 0,-1.654 1.346,-3 3,-3 1.654,0 3,1.346 3,3 0,1.654 -1.346,3 -3,3 z" /></g></svg>
